<svg width="509" height="362" viewBox="0 0 509 362" fill="none" xmlns="http://www.w3.org/2000/svg">
<g clip-path="url(#clip0_73_509)">
<path d="M176.369 352.553L181.37 353.95L189.527 336.627L182.146 334.565L176.369 352.553Z" fill="#FFB8B8"/>
<path d="M175.582 350.674L185.431 353.425L185.431 353.425C187.096 353.89 188.494 354.953 189.318 356.379C190.143 357.806 190.326 359.479 189.827 361.032L189.766 361.222L173.641 356.718L175.582 350.674Z" fill="#2F2E41"/>
<path d="M223.892 356.364L228.794 354.688L224.195 336.26L216.961 338.734L223.892 356.364Z" fill="#FFB8B8"/>
<path d="M222.056 355.299L231.708 351.998L231.708 351.998C233.34 351.441 235.142 351.51 236.718 352.191C238.295 352.873 239.517 354.11 240.115 355.632L240.188 355.818L224.384 361.222L222.056 355.299Z" fill="#2F2E41"/>
<path d="M184.754 321.193L176.238 347.401L186.457 350.181L196.25 325.958L184.754 321.193Z" fill="#2F2E41"/>
<path d="M211.58 327.15L219.244 351.769L229.889 347.004L222.225 323.973L211.58 327.15Z" fill="#2F2E41"/>
<path d="M207.591 331.59C200.774 331.561 193.974 330.976 187.267 329.842L187.096 329.81V323.753L183.204 323.35L186.242 313.232C184.826 297.644 186.838 277.904 187.489 272.222C187.638 270.89 187.736 270.142 187.736 270.142L191.152 243.067L196.866 238.148L199.463 239.724L204.279 244.215C209.876 257.062 214.318 269.157 214.346 269.934L233.119 326.037L232.993 326.12C226.474 330.411 216.537 331.59 207.591 331.59Z" fill="#3F3D56"/>
<path opacity="0.2" d="M193.574 255.076L192.261 262.717L201.147 266.136L193.574 255.076Z" fill="black"/>
<path d="M211.01 238.108H190.465C190.042 238.107 189.637 237.951 189.338 237.672C189.039 237.393 188.871 237.015 188.871 236.621V228.363C188.877 225.431 190.13 222.622 192.355 220.551C194.579 218.481 197.594 217.318 200.737 217.318C203.881 217.318 206.896 218.481 209.12 220.551C211.345 222.622 212.598 225.431 212.604 228.363V236.621C212.604 237.015 212.436 237.393 212.137 237.672C211.838 237.951 211.433 238.107 211.01 238.108Z" fill="#2F2E41"/>
<path d="M203.006 237.61C207.811 237.61 211.706 233.978 211.706 229.497C211.706 225.016 207.811 221.383 203.006 221.383C198.201 221.383 194.306 225.016 194.306 229.497C194.306 233.978 198.201 237.61 203.006 237.61Z" fill="#FFB8B8"/>
<path d="M215.412 229.188H202.849L202.72 227.506L202.076 229.188H200.141L199.886 225.855L198.609 229.188H194.866V229.023C194.869 226.702 195.859 224.477 197.619 222.836C199.379 221.195 201.765 220.272 204.253 220.269H206.025C208.513 220.272 210.899 221.195 212.659 222.836C214.419 224.477 215.409 226.702 215.412 229.023V229.188Z" fill="#2F2E41"/>
<path d="M202.746 239.65C202.651 239.65 202.557 239.642 202.464 239.626L193.264 238.113V223.934H203.391L203.14 224.207C199.652 228.001 202.28 234.152 204.157 237.482C204.295 237.726 204.357 238.001 204.335 238.276C204.313 238.551 204.208 238.815 204.032 239.037C203.885 239.226 203.692 239.381 203.468 239.487C203.245 239.594 202.997 239.65 202.746 239.65Z" fill="#2F2E41"/>
<path d="M218.978 273.92H213.936C213.774 273.921 213.618 273.865 213.498 273.764C213.378 273.662 213.303 273.523 213.288 273.373L212.279 263.724H220.635L219.626 273.372C219.611 273.523 219.536 273.662 219.416 273.764C219.296 273.865 219.14 273.921 218.978 273.92Z" fill="#6C63FF"/>
<path d="M220.622 264.938H212.292C212.119 264.938 211.954 264.874 211.832 264.76C211.71 264.647 211.641 264.492 211.641 264.331V262.875C211.641 262.714 211.71 262.56 211.832 262.446C211.954 262.332 212.119 262.268 212.292 262.268H220.622C220.794 262.268 220.96 262.332 221.082 262.446C221.204 262.56 221.272 262.714 221.273 262.875V264.331C221.272 264.492 221.204 264.647 221.082 264.76C220.96 264.874 220.794 264.938 220.622 264.938Z" fill="#2F2E41"/>
<path opacity="0.2" d="M187.947 269.769C190.263 272.269 193.404 273.981 196.876 274.636C200.349 275.291 203.956 274.851 207.131 273.385L209.025 272.511L187.947 269.769Z" fill="black"/>
<path d="M218.223 267.901C217.834 267.495 217.355 267.172 216.819 266.957C216.283 266.742 215.703 266.639 215.12 266.655C214.536 266.672 213.964 266.807 213.442 267.052C212.921 267.297 212.464 267.646 212.103 268.074L203.318 265.774L200.518 270.411L212.972 273.497C213.783 274.015 214.769 274.237 215.744 274.123C216.719 274.008 217.615 273.564 218.262 272.874C218.909 272.184 219.263 271.297 219.256 270.381C219.248 269.464 218.881 268.582 218.223 267.901Z" fill="#FFB8B8"/>
<path d="M197.26 273.048C193.083 273.048 187.432 270.764 180.724 266.341C180.35 266.1 180.034 265.788 179.796 265.427C179.557 265.066 179.402 264.662 179.34 264.242C178.845 261.318 181.903 257.366 182.203 256.987L185.418 248.755C185.455 248.621 186.491 245.059 189.091 243.792C189.639 243.53 190.241 243.382 190.856 243.357C191.47 243.333 192.084 243.433 192.653 243.65C197.607 245.332 193.739 258.323 193.208 260.026L199.771 262.907L203.939 265.385L209.646 265.941L208.097 272.63L199.428 272.812C198.719 272.974 197.99 273.053 197.26 273.048Z" fill="#3F3D56"/>
<path d="M508.813 212.034C508.809 204.218 506.94 196.501 503.343 189.442C499.745 182.382 494.509 176.158 488.013 171.219C481.517 166.281 473.925 162.751 465.786 160.887C457.647 159.023 449.165 158.87 440.955 160.441C432.745 162.011 425.012 165.265 418.317 169.966C411.622 174.668 406.132 180.7 402.246 187.624C398.359 194.549 396.173 202.193 395.845 210.003C395.518 217.813 397.057 225.593 400.352 232.779C400.297 232.722 400.24 232.666 400.185 232.608C402.695 238.064 406.174 243.085 410.477 247.46C410.489 247.473 410.503 247.486 410.515 247.499C410.863 247.852 411.212 248.203 411.569 248.547C416.732 253.569 422.915 257.585 429.756 260.361C436.598 263.138 443.963 264.619 451.423 264.719L449.514 361.434H455.413L454.219 297.601L462.752 293.411L461.45 291.105L454.164 294.683L453.604 264.714C468.361 264.398 482.401 258.71 492.719 248.864C503.036 239.019 508.813 225.8 508.813 212.034Z" fill="#E6E6E6"/>
<path d="M341.103 186.35C341.098 177.19 338.908 168.147 334.692 159.874C330.476 151.601 324.339 144.307 316.727 138.519C309.114 132.731 300.217 128.595 290.678 126.411C281.14 124.226 271.2 124.047 261.579 125.887C251.957 127.728 242.895 131.541 235.049 137.051C227.203 142.561 220.77 149.629 216.215 157.744C211.66 165.859 209.098 174.817 208.714 183.97C208.331 193.122 210.135 202.24 213.996 210.662C213.932 210.595 213.865 210.529 213.8 210.462C216.742 216.855 220.819 222.739 225.861 227.866C225.876 227.882 225.891 227.897 225.906 227.912C226.313 228.326 226.722 228.737 227.141 229.14C233.192 235.026 240.437 239.732 248.455 242.986C256.473 246.239 265.104 247.975 273.846 248.092L271.609 361.434H278.522L277.123 286.627L287.123 281.717L285.597 279.015L277.059 283.207L276.402 248.086C293.697 247.717 310.15 241.05 322.241 229.512C334.333 217.975 341.103 202.483 341.103 186.35Z" fill="#E6E6E6"/>
<path d="M150.9 162.192C150.894 151.768 148.402 141.477 143.604 132.063C138.806 122.649 131.823 114.348 123.16 107.761C114.497 101.175 104.372 96.4683 93.5173 93.9821C82.663 91.4959 71.3515 91.2925 60.4025 93.3868C49.4535 95.481 39.1411 99.8204 30.2126 106.09C21.284 112.361 13.9629 120.404 8.77961 129.639C3.59634 138.874 0.680746 149.068 0.244064 159.483C-0.192617 169.899 1.86056 180.274 6.25483 189.858C6.18114 189.782 6.105 189.707 6.03167 189.631C9.37878 196.906 14.0189 203.602 19.7563 209.437C19.7735 209.454 19.7911 209.471 19.8082 209.489C20.2712 209.959 20.7367 210.427 21.2131 210.886C28.0994 217.584 36.3439 222.94 45.4679 226.642C54.5919 230.345 64.4137 232.32 74.363 232.453L71.8167 361.434H79.6835L78.0914 276.305L89.4712 270.718L87.7352 267.643L78.0186 272.413L77.2711 232.447C96.9522 232.026 115.675 224.439 129.435 211.31C143.195 198.18 150.899 180.551 150.9 162.192Z" fill="#E6E6E6"/>
<path d="M433.731 91.9164C460.948 91.9164 483.012 71.3402 483.012 45.9582C483.012 20.5762 460.948 0 433.731 0C406.514 0 384.45 20.5762 384.45 45.9582C384.45 71.3402 406.514 91.9164 433.731 91.9164Z" fill="#FF6584"/>
<path d="M140.754 192.399C195.302 192.399 239.523 151.16 239.523 100.29C239.523 49.4196 195.302 8.18103 140.754 8.18103C86.2054 8.18103 41.9851 49.4196 41.9851 100.29C41.9851 151.16 86.2054 192.399 140.754 192.399Z" fill="#6C63FF"/>
<path opacity="0.2" d="M67.8261 38.7684C58.6132 58.8659 57.3634 81.3637 64.3001 102.241C71.2367 123.119 85.9078 141.017 105.692 152.735C125.476 164.454 149.083 169.23 172.296 166.211C195.508 163.192 216.814 152.574 232.404 136.254C226.776 148.533 218.353 159.523 207.718 168.465C197.083 177.406 184.491 184.085 170.813 188.037C157.136 191.99 142.701 193.122 128.508 191.355C114.315 189.589 100.703 184.965 88.6165 177.806C76.5296 170.646 66.2563 161.122 58.5084 149.892C50.7605 138.662 45.7233 125.996 43.7457 112.771C41.7681 99.5451 42.8974 86.0768 47.0554 73.2987C51.2134 60.5207 58.3007 48.7385 67.8261 38.7684Z" fill="black"/>
<path d="M141.025 100.29H141.297L146.181 361.434H135.87L141.025 100.29Z" fill="#3F3D56"/>
<path d="M156.734 238.503L140.407 246.519L142.682 250.55L159.009 242.534L156.734 238.503Z" fill="#3F3D56"/>
<path d="M291.824 358.991C291.824 358.991 292.18 352.028 299.486 352.837L291.824 358.991Z" fill="#3F3D56"/>
<path d="M289.76 352.365C291.779 352.365 293.416 350.838 293.416 348.955C293.416 347.072 291.779 345.545 289.76 345.545C287.74 345.545 286.104 347.072 286.104 348.955C286.104 350.838 287.74 352.365 289.76 352.365Z" fill="#6C63FF"/>
<path d="M290.197 354.697H289.165V361.434H290.197V354.697Z" fill="#3F3D56"/>
<path d="M38.4519 358.029C38.4519 358.029 38.8082 351.065 46.1135 351.875L38.4519 358.029Z" fill="#3F3D56"/>
<path d="M36.3877 351.402C38.407 351.402 40.0439 349.876 40.0439 347.993C40.0439 346.109 38.407 344.583 36.3877 344.583C34.3684 344.583 32.7314 346.109 32.7314 347.993C32.7314 349.876 34.3684 351.402 36.3877 351.402Z" fill="#6C63FF"/>
<path d="M36.8248 353.734H35.7927V360.472H36.8248V353.734Z" fill="#3F3D56"/>
<path d="M98.3115 358.51C98.3115 358.51 98.6679 351.547 105.973 352.356L98.3115 358.51Z" fill="#3F3D56"/>
<path d="M96.2475 351.883C98.2668 351.883 99.9038 350.357 99.9038 348.474C99.9038 346.591 98.2668 345.064 96.2475 345.064C94.2283 345.064 92.5913 346.591 92.5913 348.474C92.5913 350.357 94.2283 351.883 96.2475 351.883Z" fill="#6C63FF"/>
<path d="M96.6847 354.216H95.6526V360.953H96.6847V354.216Z" fill="#3F3D56"/>
<path d="M391.87 361.519C391.87 361.519 392.226 354.555 399.531 355.365L391.87 361.519Z" fill="#3F3D56"/>
<path d="M323.238 361.519C323.238 361.519 323.594 354.555 330.899 355.365L323.238 361.519Z" fill="#3F3D56"/>
<path d="M72.9617 361.519C72.9617 361.519 73.318 354.555 80.6233 355.365L72.9617 361.519Z" fill="#3F3D56"/>
<path d="M422.832 361.519C422.832 361.519 423.188 354.555 430.494 355.365L422.832 361.519Z" fill="#3F3D56"/>
<path d="M408.383 361.519C408.383 361.519 408.739 354.555 416.045 355.365L408.383 361.519Z" fill="#3F3D56"/>
<path d="M378.577 361.519C378.577 361.519 378.221 354.555 370.916 355.365L378.577 361.519Z" fill="#3F3D56"/>
<path d="M259.89 361.519C259.89 361.519 259.534 354.555 252.228 355.365L259.89 361.519Z" fill="#3F3D56"/>
<path d="M161.328 361.519C161.328 361.519 160.971 354.555 153.666 355.365L161.328 361.519Z" fill="#3F3D56"/>
<path d="M56.573 361.519C56.573 361.519 56.2166 354.555 48.9114 355.365L56.573 361.519Z" fill="#3F3D56"/>
<path d="M453.918 361.519C453.918 361.519 453.562 354.555 446.257 355.365L453.918 361.519Z" fill="#3F3D56"/>
<path d="M409.539 362C409.539 362 409.183 355.037 401.878 355.846L409.539 362Z" fill="#3F3D56"/>
<path d="M509 360.608H0V361.677H509V360.608Z" fill="#3F3D56"/>
</g>
<defs>
<clipPath id="clip0_73_509">
<rect width="509" height="362" fill="white"/>
</clipPath>
</defs>
</svg>
