<svg width="366" height="280" viewBox="0 0 366 280" fill="none" xmlns="http://www.w3.org/2000/svg">
<g clip-path="url(#clip0_73_59)">
<path d="M359.795 242.917C358.257 230.659 350.591 218.581 338.794 214.592C343.447 227.209 343.446 241.05 338.792 253.667C336.979 258.526 334.452 263.744 336.157 268.641C337.218 271.688 339.813 274.02 342.714 275.477C345.616 276.935 348.835 277.63 352.015 278.311L352.641 278.824C357.688 267.529 361.334 255.175 359.795 242.917Z" fill="#F0F0F0"/>
<path d="M338.677 214.824C345.547 222.452 349.817 232.031 350.88 242.201C351.148 244.387 351.067 246.6 350.64 248.761C350.155 250.852 349.114 252.776 347.624 254.333C346.265 255.813 344.702 257.171 343.73 258.952C343.246 259.872 342.963 260.882 342.901 261.917C342.838 262.952 342.997 263.988 343.367 264.958C344.226 267.399 345.918 269.388 347.641 271.276C349.554 273.372 351.575 275.52 352.388 278.299C352.486 278.636 353.008 278.465 352.909 278.129C351.495 273.293 346.758 270.546 344.499 266.191C343.445 264.159 343.002 261.799 343.991 259.654C344.855 257.778 346.465 256.376 347.855 254.89C349.33 253.392 350.412 251.558 351.008 249.55C351.545 247.418 351.712 245.211 351.502 243.024C351.108 238.092 349.934 233.252 348.024 228.682C345.872 223.453 342.834 218.628 339.041 214.415C338.806 214.155 338.444 214.565 338.677 214.824H338.677Z" fill="white"/>
<path d="M350.732 238.907C352.43 238.498 353.926 237.505 354.953 236.105C355.979 234.704 356.471 232.988 356.338 231.261C356.31 230.912 355.761 230.939 355.789 231.289C355.916 232.896 355.458 234.495 354.499 235.797C353.54 237.099 352.143 238.019 350.56 238.39C350.216 238.471 350.39 238.987 350.732 238.907Z" fill="white"/>
<path d="M348.413 253.673C345.347 251.859 343.084 248.966 342.075 245.571C341.975 245.235 341.453 245.406 341.553 245.742C342.61 249.273 344.971 252.278 348.166 254.159C348.471 254.338 348.716 253.851 348.413 253.673Z" fill="white"/>
<path d="M345.363 223.969C344.739 224.263 344.052 224.398 343.362 224.364C342.673 224.329 342.002 224.125 341.412 223.77C341.11 223.588 340.865 224.075 341.165 224.257C341.819 224.646 342.559 224.87 343.321 224.91C344.083 224.95 344.843 224.804 345.535 224.486C345.603 224.462 345.658 224.412 345.691 224.348C345.723 224.285 345.73 224.211 345.71 224.142C345.686 224.074 345.637 224.017 345.572 223.985C345.507 223.953 345.432 223.947 345.363 223.969Z" fill="white"/>
<path d="M302.836 236.487C303.022 236.606 303.207 236.726 303.393 236.85C305.877 238.469 308.225 240.285 310.412 242.281C310.584 242.432 310.756 242.589 310.922 242.745C316.141 247.609 320.403 253.391 323.492 259.796C324.719 262.347 325.748 264.985 326.571 267.69C327.707 271.426 328.639 275.566 330.887 278.622C331.118 278.943 331.369 279.25 331.639 279.54H351.961C352.007 279.518 352.053 279.499 352.1 279.476L352.911 279.513C352.878 279.37 352.842 279.223 352.809 279.081C352.79 278.998 352.767 278.916 352.749 278.833C352.735 278.778 352.721 278.723 352.712 278.672C352.707 278.654 352.702 278.635 352.698 278.622C352.688 278.571 352.674 278.525 352.665 278.479C352.461 277.657 352.251 276.834 352.035 276.012C352.035 276.007 352.035 276.007 352.03 276.002C350.365 269.74 348.159 263.56 345.075 257.908C344.982 257.738 344.89 257.563 344.788 257.393C343.384 254.853 341.773 252.431 339.97 250.152C338.979 248.907 337.926 247.712 336.813 246.572C333.932 243.633 330.602 241.162 326.946 239.248C319.658 235.434 311.219 233.973 303.43 236.303C303.231 236.363 303.036 236.422 302.836 236.487Z" fill="#F0F0F0"/>
<path d="M302.882 236.742C313.002 238.734 322.231 243.835 329.258 251.321C330.8 252.906 332.08 254.722 333.051 256.702C333.934 258.661 334.272 260.818 334.029 262.95C333.843 264.943 333.42 266.959 333.726 268.962C333.898 269.985 334.286 270.96 334.865 271.824C335.444 272.687 336.2 273.42 337.085 273.974C339.253 275.41 341.813 275.988 344.335 276.468C347.137 277 350.055 277.51 352.392 279.244C352.676 279.454 352.988 279.006 352.705 278.796C348.638 275.779 343.187 276.412 338.737 274.283C336.661 273.289 334.874 271.669 334.36 269.366C333.91 267.353 334.345 265.273 334.551 263.257C334.819 261.181 334.569 259.071 333.824 257.112C332.958 255.089 331.751 253.228 330.254 251.607C326.944 247.904 323.066 244.74 318.764 242.23C313.87 239.34 308.513 237.3 302.924 236.199C302.578 236.131 302.538 236.675 302.882 236.742H302.882Z" fill="white"/>
<path d="M327.139 248.779C328.246 247.44 328.837 245.754 328.806 244.023C328.775 242.292 328.124 240.629 326.97 239.329C326.735 239.067 326.313 239.416 326.548 239.678C327.625 240.886 328.231 242.436 328.257 244.048C328.282 245.66 327.726 247.228 326.687 248.469C326.462 248.738 326.915 249.047 327.139 248.779Z" fill="white"/>
<path d="M334.258 261.952C330.708 262.333 327.143 261.374 324.275 259.266C323.991 259.057 323.678 259.504 323.962 259.713C326.951 261.901 330.662 262.892 334.356 262.488C334.708 262.449 334.608 261.914 334.258 261.952Z" fill="white"/>
<path d="M313.776 240.056C313.457 240.662 312.99 241.181 312.418 241.564C311.847 241.948 311.188 242.185 310.501 242.254C310.149 242.288 310.249 242.824 310.599 242.79C311.358 242.71 312.085 242.447 312.718 242.025C313.35 241.602 313.869 241.033 314.228 240.366C314.267 240.306 314.281 240.233 314.269 240.163C314.256 240.092 314.216 240.029 314.158 239.987C314.098 239.946 314.024 239.93 313.953 239.943C313.881 239.956 313.818 239.997 313.776 240.056Z" fill="white"/>
<path d="M203.407 14.9799C202.917 15.5854 202.567 16.29 202.382 17.0441C202.196 17.7981 202.18 18.5833 202.334 19.3442C202.488 20.1052 202.808 20.8235 203.272 21.4485C203.737 22.0734 204.334 22.5899 205.021 22.9615L201.889 41.57L210.931 37.5932L212.519 20.532C213.073 19.346 213.168 18 212.787 16.7491C212.406 15.4982 211.575 14.4293 210.451 13.7449C209.328 13.0605 207.991 12.8083 206.692 13.0359C205.394 13.2635 204.225 13.9552 203.407 14.9799Z" fill="#9E616A"/>
<path d="M284.752 272.422L277.358 272.421L273.841 244.16L284.753 244.161L284.752 272.422Z" fill="#9E616A"/>
<path d="M286.637 279.524L262.798 279.523V279.224C262.798 276.786 263.775 274.447 265.516 272.722C267.256 270.998 269.616 270.029 272.077 270.029H272.077L286.638 270.029L286.637 279.524Z" fill="#2F2E41"/>
<path d="M235.141 272.422L227.747 272.421L224.23 244.16L235.142 244.161L235.141 272.422Z" fill="#9E616A"/>
<path d="M237.026 279.524L213.187 279.523V279.224C213.187 276.786 214.164 274.447 215.905 272.722C217.645 270.998 220.005 270.029 222.466 270.029H222.466L237.027 270.029L237.026 279.524Z" fill="#2F2E41"/>
<path d="M232.059 140.546L229.295 144.148C229.295 144.148 229.045 145.83 224.853 159.534L222.554 262.54H236.464L255.056 180.123L274.353 264.193L286.41 264.898L285.843 169.344C285.843 169.344 287.366 149.685 281.968 146.035C276.57 142.384 232.059 140.546 232.059 140.546Z" fill="#2F2E41"/>
<path d="M250.712 53.9866C258.774 53.9866 265.308 47.5105 265.308 39.5217C265.308 31.533 258.774 25.0569 250.712 25.0569C242.651 25.0569 236.116 31.533 236.116 39.5217C236.116 47.5105 242.651 53.9866 250.712 53.9866Z" fill="#9E616A"/>
<path d="M265.396 41.7864L265.155 41.3087C264.783 40.5699 261.696 34.4279 261.309 32.8486L257.425 33.3014L247.31 33.3029L248.715 31.2137L244.999 31.6941C243.641 31.8576 242.342 32.3427 241.213 33.1084C240.52 33.5646 239.934 34.1631 239.495 34.8634C238.168 37.1159 236.14 40.8003 236.12 40.8374L235.926 41.1898L234.241 38.3806C234.219 38.2716 232.13 27.4766 239.119 23.8155C239.48 23.0899 242.552 17.3827 249.812 17.7679C250.61 16.8663 251.734 16.3125 252.941 16.2263C254.599 16.1406 256.32 17.0037 258.048 18.8024C260.344 21.1914 263.488 24.463 265.39 28.0956L265.915 28.8373C266.66 29.8988 267.029 31.1753 266.964 32.467C267.368 34.5284 267.225 36.6584 266.548 38.6483L265.396 41.7864Z" fill="#2F2E41"/>
<path d="M261.834 56.7083L269.91 61.1322L285.776 65.5345L281.04 106.68L281.902 147.208C281.902 147.208 255.046 165.44 229.295 144.148V93.1338L230.819 65.5345C230.819 65.5345 236.981 63.7997 240.084 66.7923L245.968 59.2168L261.834 56.7083Z" fill="#E4E4E4"/>
<path d="M234.377 69.3255L230.819 65.5347L211.209 63.3333L213.049 33.4855L202.358 25.927L194.503 67.947L230.787 93.1337L234.377 69.3255Z" fill="#E4E4E4"/>
<path d="M274.127 160.602C273.981 159.839 274.005 159.054 274.198 158.302C274.391 157.55 274.749 156.849 275.245 156.248C275.741 155.647 276.363 155.162 277.069 154.826C277.775 154.489 278.547 154.311 279.33 154.302L285.367 136.41L291.472 144.124L284.803 159.932C284.731 161.237 284.178 162.47 283.249 163.397C282.321 164.325 281.081 164.883 279.765 164.966C278.449 165.048 277.149 164.65 276.11 163.845C275.07 163.041 274.365 161.887 274.127 160.602Z" fill="#9E616A"/>
<path d="M279.815 70.2445L285.776 65.5345C285.776 65.5345 291.87 68.866 293.725 74.8393C295.579 80.8127 298.825 114.815 298.825 114.815L290.016 158.466L280.164 151.695L284.915 117.112L276.57 91.8403L279.815 70.2445Z" fill="#E4E4E4"/>
<path d="M205.095 0H54.7773V36.1994H205.095V0Z" fill="#E6E6E6"/>
<path d="M58.7213 32.2906H201.151V3.90875H58.7213V32.2906Z" fill="white"/>
<path d="M85.8496 28.9125C91.8755 28.9125 96.7604 24.0714 96.7604 18.0997C96.7604 12.1279 91.8755 7.2869 85.8496 7.2869C79.8237 7.2869 74.9387 12.1279 74.9387 18.0997C74.9387 24.0714 79.8237 28.9125 85.8496 28.9125Z" fill="#6C63FF"/>
<path d="M184.934 13.8686H111.941V16.2192H184.934V13.8686Z" fill="#6C63FF"/>
<path d="M184.934 19.9802H111.941V22.3308H184.934V19.9802Z" fill="#6C63FF"/>
<path d="M0 55.0197L127.187 64.2135V97.3077L0 94.9671V55.0197Z" fill="#E6E6E6"/>
<path d="M4.00659 90.7512L124.41 93.6695V67.602L4.00659 59.5993V90.7512Z" fill="white"/>
<path d="M30.4326 64.9306C31.8227 65.0195 33.1764 65.4079 34.3994 66.0688C35.626 66.7333 36.7141 67.6225 37.6059 68.6893C38.5327 69.793 39.2587 71.048 39.7512 72.3983C40.271 73.8189 40.5361 75.3187 40.5349 76.8298C40.5403 78.3181 40.2749 79.7951 39.7512 81.19C39.2656 82.4854 38.5377 83.6784 37.6059 84.7066C36.7112 85.6946 35.6193 86.4879 34.3994 87.0363C33.1538 87.5906 31.7973 87.8568 30.4326 87.8146C29.036 87.7707 27.6662 87.4219 26.4212 86.7931C25.16 86.154 24.036 85.2784 23.1116 84.2148C22.1417 83.1029 21.3802 81.8282 20.8632 80.4507C20.3146 78.9958 20.0342 77.4551 20.0354 75.9019C20.0293 74.3718 20.31 72.854 20.8632 71.4255C21.3736 70.1063 22.1373 68.8978 23.1121 67.8668C24.0406 66.8844 25.1686 66.108 26.4217 65.5889C27.6905 65.0689 29.0625 64.8438 30.4326 64.9306Z" fill="#E6E6E6"/>
<path d="M54.1213 73.1192L112.722 76.1456V78.3452L54.1213 75.5236V73.1192Z" fill="#E6E6E6"/>
<path d="M54.1213 79.3714L112.722 81.8644V84.064L54.1213 81.7758V79.3714Z" fill="#E6E6E6"/>
<path d="M0 122.248L127.187 119.908V153.003L0 162.196V122.248Z" fill="#E6E6E6"/>
<path d="M4.00659 157.616L124.41 149.614V123.549L4.00659 126.467V157.616Z" fill="white"/>
<path d="M20.0441 140.787C20.1059 139.235 20.4489 137.706 21.0568 136.275C21.6276 134.926 22.4391 133.69 23.4524 132.626C24.4168 131.609 25.5731 130.79 26.8558 130.215C28.1244 129.649 29.5041 129.37 30.8951 129.397C32.2602 129.425 33.601 129.76 34.8165 130.376C36.0117 130.987 37.0675 131.835 37.9184 132.867C38.8058 133.942 39.4833 135.172 39.9159 136.493C40.3819 137.913 40.5874 139.404 40.5229 140.895C40.4644 142.405 40.14 143.893 39.5642 145.292C39.0196 146.618 38.2444 147.839 37.2738 148.9C36.3416 149.923 35.2197 150.759 33.9691 151.362C32.7202 151.963 31.3533 152.283 29.9653 152.301C28.5909 152.317 27.231 152.022 25.9898 151.436C24.7599 150.852 23.6675 150.017 22.7833 148.988C21.8535 147.906 21.1417 146.657 20.6865 145.31C20.1936 143.854 19.9758 142.321 20.0441 140.787Z" fill="#E6E6E6"/>
<path d="M54.1213 135.44L112.722 133.152V135.352L54.1213 137.845V135.44Z" fill="#E6E6E6"/>
<path d="M54.1213 141.692L112.722 138.871V141.071L54.1213 144.097V141.692Z" fill="#E6E6E6"/>
<path d="M365.536 280H188.884C188.761 280 188.643 279.952 188.556 279.865C188.469 279.779 188.421 279.662 188.421 279.541C188.421 279.419 188.469 279.302 188.556 279.216C188.643 279.129 188.761 279.081 188.884 279.081H365.536C365.659 279.081 365.777 279.129 365.864 279.216C365.951 279.302 366 279.419 366 279.541C366 279.662 365.951 279.779 365.864 279.865C365.777 279.952 365.659 280 365.536 280Z" fill="#CACACA"/>
</g>
<defs>
<clipPath id="clip0_73_59">
<rect width="366" height="280" fill="white"/>
</clipPath>
</defs>
</svg>
