<svg width="392" height="336" viewBox="0 0 392 336" fill="none" xmlns="http://www.w3.org/2000/svg">
<path d="M327.129 197.78C327.074 226.106 316.424 253.387 297.274 274.259C278.124 295.131 251.858 308.085 223.642 310.574C195.425 313.062 167.298 304.905 144.79 287.707C122.282 270.509 107.022 245.513 102.01 217.634C96.997 189.755 102.595 161.009 117.702 137.047C132.809 113.086 156.334 95.6428 183.65 88.1468C210.967 80.6507 240.099 83.6441 265.32 96.5385C290.542 109.433 310.027 131.296 319.946 157.828C320.193 158.495 320.435 159.161 320.669 159.834V159.84C321.717 162.797 322.639 165.809 323.436 168.876C325.896 178.313 327.137 188.027 327.129 197.78V197.78Z" fill="#3F3D56"/>
<path d="M200.413 120.717C195.28 117.941 189.581 116.375 183.75 116.136C177.92 115.897 172.112 116.994 166.769 119.341C162.065 121.388 157.112 125.06 155.542 131.692C161.889 127.947 170.105 133.865 171.738 143.358L171.357 143.463C170.494 150.039 172.42 157.198 176.148 161.276C176.425 159.436 177.109 157.681 178.149 156.138C179.189 154.596 180.56 153.304 182.161 152.357C184.9 150.557 187.93 149.249 190.021 146.154C192.5 142.485 193.129 137.122 194.114 132.23C195.098 127.338 196.966 122.08 200.413 120.717Z" fill="#6C63FF"/>
<path d="M164.887 176.675C163.129 179.314 160.781 180.971 158.674 183.033C156.242 185.245 154.647 188.228 154.156 191.479C153.89 193.776 154.302 196.111 154.245 198.434C154.188 200.756 153.414 203.37 151.834 203.948C149.34 204.849 147.436 200.217 144.873 199.893C142.836 199.639 141.002 202.844 141.592 205.623C142.182 208.402 144.955 209.633 146.548 207.819C147.988 210.236 146.973 214.621 144.809 215.363C144.581 216.886 144.352 218.403 144.13 219.926C138.66 216.099 133.134 212.21 128.482 206.606C123.309 200.428 120.101 192.844 119.268 184.829C118.666 178.388 119.56 171.021 116.604 166.065C114.237 162.099 110.175 161.223 106.52 161.471C105.854 161.515 105.182 161.591 104.515 161.674C106.671 155.2 109.408 148.934 112.694 142.954C113.438 142.635 114.129 142.205 114.744 141.679C118.145 138.792 119.656 132.947 122.416 128.905C122.594 128.645 122.778 128.391 122.968 128.144C125.792 124.457 129.574 122.56 133.229 120.796C141.319 116.868 149.644 112.889 158.186 113.435L155.755 113.67C152.919 121.614 150.08 129.559 147.24 137.504C146.808 138.722 146.372 139.942 145.932 141.165C144.321 145.683 142.658 150.493 142.906 155.55C143.052 158.545 144.092 161.744 146.072 162.771C147.919 163.723 149.936 162.556 151.719 161.401C152.475 160.919 153.223 160.436 153.978 159.948C156.688 158.203 159.689 156.413 162.551 157.581C165.172 158.647 167.107 162.207 167.475 166.046C167.813 169.778 166.902 173.516 164.887 176.675Z" fill="#6C63FF"/>
<path d="M181.002 230.915C173.088 226.042 165.174 221.17 157.261 216.297L157.395 215.951C152.475 217.825 150.432 226.571 151.245 233.724C152.059 240.876 154.816 247.27 156.209 254.239C158.087 263.776 157.378 273.642 154.156 282.812C164.561 271.136 173.77 258.447 181.645 244.934C182.745 243.23 183.583 241.372 184.131 239.42C184.712 237.34 184.505 235.119 183.55 233.182C182.902 232.226 182.026 231.447 181.002 230.915V230.915Z" fill="#6C63FF"/>
<path d="M149.77 142.27C148.841 144.266 148.697 146.538 149.369 148.634C150.15 150.323 151.566 151.634 153.31 152.284L157.682 154.451C159.137 155.172 160.705 155.9 162.188 155.307C163.976 154.592 165.216 151.788 164.896 149.184C164.554 146.414 162.808 144.509 161.193 142.886C158.933 140.616 156.673 138.345 154.413 136.074L153.14 137.634C151.762 138.978 150.623 140.545 149.77 142.27V142.27Z" fill="#6C63FF"/>
<path d="M303.689 171.884C305.656 172.347 307.623 172.81 309.59 173.273C309.248 179.917 305.954 186.066 301.538 188.293C299.698 189.22 297.648 189.562 296.125 191.295C294.748 192.868 294.05 195.318 293.409 197.659C292.286 201.746 291.163 205.832 290.04 209.919C288.834 214.323 287.286 219.215 284.151 220.802C281.46 222.166 278.383 220.497 276.314 217.699C274.246 214.9 272.983 211.137 271.758 207.47C271.834 211.467 269.975 215.389 267.342 216.778C264.702 218.168 261.491 216.912 259.727 213.809C258.458 211.581 257.931 208.643 256.687 206.384C255.444 204.125 252.836 202.831 251.478 204.95C250.583 206.359 250.697 208.517 250.253 210.306C250.029 211.494 249.441 212.583 248.57 213.421C247.699 214.259 246.588 214.805 245.392 214.983C244.293 214.958 243.21 214.709 242.21 214.252C241.209 213.795 240.312 213.139 239.574 212.324C235.688 208.349 233.158 203.247 232.346 197.748C231.795 195.112 231.865 192.383 232.549 189.778C233.33 187.31 235.214 185.406 237.086 185.876C238.317 183.274 235.887 179.822 233.698 180.127C231.502 180.431 229.782 182.785 227.98 184.594C226.184 186.402 223.672 187.716 221.863 185.92C221.904 186.577 221.681 187.223 221.246 187.716C220.81 188.209 220.196 188.509 219.539 188.549C219.474 188.553 219.409 188.555 219.344 188.554C218.141 188.208 217.024 187.616 216.063 186.815C211.92 184.232 206.659 185.946 203.715 190.832C205.555 183.001 208.252 174.016 213.906 172.176C216.216 171.42 218.735 172.042 220.918 170.735C224.782 168.419 225.563 159.668 222.225 156.058C222.65 159.472 222.568 163.457 220.765 165.792C218.963 168.127 215.181 166.604 215.41 163.152C215.358 163.638 215.155 164.095 214.828 164.457C214.501 164.82 214.068 165.07 213.59 165.171C213.113 165.273 212.615 165.22 212.169 165.022C211.723 164.823 211.352 164.489 211.107 164.066C209.908 162.239 210.01 159.25 210.86 157.067C211.737 155.09 212.994 153.305 214.559 151.813C217.574 148.583 220.632 145.315 224.122 143.284C227.619 141.254 231.654 140.569 235.157 142.586C237.004 143.652 238.628 145.429 240.513 146.368C240.956 146.643 241.448 146.828 241.963 146.912C242.477 146.997 243.003 146.979 243.51 146.86C244.018 146.741 244.497 146.524 244.92 146.22C245.344 145.916 245.703 145.531 245.978 145.089L245.978 145.089C245.999 145.054 246.02 145.02 246.04 144.985C247.442 142.523 246.782 138.868 247.303 135.79C248.235 130.352 253.673 127.808 256.688 131.399C254.435 130.822 252.106 133.487 251.827 136.717C251.541 139.947 253.172 143.208 255.355 144.185C259.023 145.81 262.614 141.723 265.387 137.941C268.281 133.982 271.179 130.024 274.081 126.069C274.544 125.396 275.064 124.763 275.635 124.178C276.544 123.292 277.756 122.785 279.025 122.759C280.294 122.733 281.525 123.19 282.469 124.038C285.401 126.431 286.778 131.336 289.183 134.712C292.673 139.617 297.896 140.81 302.756 141.762C306.379 142.466 310.005 143.174 313.633 143.887C316.051 148.386 318.16 153.044 319.946 157.828C313.294 160.862 307.652 165.74 303.689 171.884V171.884Z" fill="#6C63FF"/>
<path d="M315.403 248.233C312.684 253.754 309.522 259.044 305.948 264.053C303.664 263.076 301.208 264.82 299.069 266.458C296.836 268.171 294.152 269.84 291.861 268.279C289.519 266.68 288.764 262.206 289.507 258.659C290.36 255.387 291.852 252.316 293.898 249.623C295.801 246.78 297.838 243.829 300.484 242.725C303.137 241.621 306.544 243.182 307.319 246.952L309.197 246.888C308.143 245.441 308.696 242.446 310.111 241.919C311.741 241.304 313.157 243.544 314.121 245.524C314.553 246.418 314.99 247.32 315.403 248.233Z" fill="#6C63FF"/>
<path d="M243.466 221.43C239.429 221.684 236.231 216.714 234.106 211.825C231.981 206.935 230.042 201.344 226.399 198.855C224.317 197.433 221.944 197.238 219.687 196.549C218.406 196.225 217.221 195.601 216.23 194.729C215.238 193.856 214.469 192.759 213.986 191.53L211.425 190.496C207.843 192.286 204.562 194.626 201.702 197.429C198.433 200.901 196.397 205.352 195.908 210.095C195.419 215.221 197.226 220.937 200.601 222.863C203.268 224.384 206.374 223.425 209.075 224.818C212.451 226.559 214.455 231.614 215.213 236.606C215.972 241.598 215.78 246.785 216.322 251.834C216.865 256.882 218.361 262.135 221.456 264.722C225.33 267.959 231.014 265.269 232.752 259.376C233.605 256.485 233.575 253.223 234.213 250.223C235.336 244.938 238.366 241.018 240.769 236.683C243.172 232.348 245.064 226.461 243.466 221.43Z" fill="#6C63FF"/>
<path d="M203.572 169.504C203.949 169.85 204.3 170.223 204.624 170.62C204.958 171.197 205.129 171.855 205.118 172.522C205.107 173.189 204.913 173.841 204.559 174.406C205.045 174.379 205.521 174.25 205.955 174.03C206.389 173.809 206.773 173.501 207.082 173.124C207.819 172.285 208.467 171.372 209.016 170.399C209.274 170.066 209.459 169.682 209.557 169.272C209.655 168.863 209.665 168.437 209.586 168.023C209.396 167.478 208.945 167.246 208.629 166.837C208.19 166.036 207.891 165.168 207.744 164.267C207.568 163.423 207.161 162.645 206.568 162.019C205.974 161.394 205.218 160.946 204.385 160.727L204.587 160.766C204.243 160.97 203.971 161.277 203.81 161.644C203.648 162.01 203.606 162.418 203.688 162.81C203.811 163.602 204.32 164.259 204.269 165.067C204.196 166.228 203.036 166.773 202.964 167.935C202.953 168.517 203.171 169.081 203.572 169.504V169.504Z" fill="#6C63FF"/>
<path d="M196.655 149.769L196.673 149.765C196.797 149.652 196.913 149.53 197.018 149.398L196.655 149.769Z" fill="#6C63FF"/>
<path d="M197.866 155.22C198.351 154.795 198.709 154.244 198.903 153.628C199.096 153.013 199.116 152.356 198.962 151.73C198.669 150.409 197.631 149.522 196.673 149.765C196.395 150.047 196.051 150.253 195.671 150.365C195.292 150.477 194.89 150.49 194.504 150.404C193.912 150.252 193.262 149.859 192.749 150.305C192.455 150.638 192.25 151.04 192.151 151.473C191.961 152.056 191.771 152.639 191.581 153.222C191.491 153.431 191.467 153.663 191.513 153.886C191.55 153.975 191.609 154.053 191.684 154.113C191.759 154.173 191.849 154.213 191.944 154.228L195.365 155.236C195.757 155.417 196.185 155.51 196.617 155.507C197.049 155.504 197.476 155.406 197.866 155.22V155.22Z" fill="#6C63FF"/>
<path d="M283.938 230.478C283.411 229.615 282.884 228.752 282.357 227.889C281.839 226.89 281.131 226.001 280.273 225.273C279.898 224.959 279.413 224.806 278.925 224.849C278.438 224.892 277.987 225.127 277.673 225.503L277.673 225.503L277.645 225.536L277.709 226.029C279.12 227.542 280.082 229.418 280.486 231.447C280.606 232.329 280.565 233.242 280.67 234.128C280.681 234.538 280.773 234.943 280.94 235.318C281.108 235.693 281.348 236.031 281.646 236.314C282.476 236.868 283.451 236.051 284.041 235.053C284.569 234.234 284.806 233.261 284.714 232.29C284.582 231.639 284.318 231.022 283.938 230.478V230.478Z" fill="#6C63FF"/>
<path d="M292.205 231.6C292.306 230.793 292.24 229.973 292.012 229.191C291.975 228.134 292.255 227.09 292.817 226.193C293.375 225.348 293.799 224.42 294.071 223.444C294.186 222.999 294.165 222.531 294.011 222.098C293.837 221.706 293.414 221.527 293.172 221.838L293.69 222.172C292.99 222.047 292.27 222.081 291.585 222.274C291.195 222.423 290.846 222.665 290.568 222.978C290.29 223.291 290.092 223.666 289.99 224.072C289.904 224.705 289.764 225.329 289.572 225.938C289.262 226.574 288.663 226.785 288.287 227.343C288.03 227.838 287.901 228.389 287.91 228.946C287.919 229.504 288.067 230.05 288.34 230.536C288.813 231.331 289.564 231.922 290.448 232.194C291.081 232.421 291.915 232.433 292.205 231.6Z" fill="#6C63FF"/>
<path d="M306.929 236.043C307.158 236.639 307.464 237.202 307.841 237.717C308.546 238.427 309.504 237.991 310.359 237.818C311.135 237.696 311.93 237.785 312.659 238.078C313.388 238.37 314.024 238.855 314.5 239.479C314.169 237.825 313.445 236.275 312.39 234.959C311.335 233.643 309.98 232.599 308.438 231.915C306.434 231.222 304.322 230.892 302.202 230.94L301.84 231.033C302.763 233.719 305.66 233.659 306.929 236.043Z" fill="#6C63FF"/>
<path d="M244.57 241.536L244.576 241.548L244.681 241.345L244.57 241.536Z" fill="#6C63FF"/>
<path d="M242.337 245.859C241.85 246.744 241.431 247.664 241.084 248.612C240.624 250.148 240.32 251.726 240.176 253.322C240.062 254.23 240.027 255.389 240.596 255.832C240.759 255.94 240.957 255.985 241.151 255.959C241.345 255.932 241.523 255.836 241.651 255.688C241.967 255.354 242.226 254.97 242.416 254.551C243.534 252.626 244.402 250.566 244.999 248.422C245.622 246.147 245.473 243.729 244.576 241.548C243.83 242.985 243.083 244.422 242.337 245.859Z" fill="#6C63FF"/>
<path d="M220.79 130.678C221.145 131.025 221.593 131.26 222.08 131.355C222.567 131.45 223.071 131.401 223.53 131.213C224.481 130.797 225.353 130.221 226.109 129.509C226.735 129.047 227.265 128.468 227.672 127.804C227.896 127.408 228.04 126.971 228.095 126.519C228.15 126.067 228.115 125.608 227.992 125.17C227.817 124.75 227.538 124.381 227.181 124.099C226.824 123.816 226.401 123.63 225.952 123.556C224.687 123.181 223.421 122.806 222.156 122.431L223.071 121.605C222.129 121.1 221.087 122.038 220.499 123.2C220.121 123.958 219.858 124.768 219.718 125.604C219.517 126.476 219.51 127.383 219.695 128.259C219.88 129.135 220.254 129.961 220.79 130.678V130.678Z" fill="#6C63FF"/>
<path d="M243.132 123.177C243.489 123.57 243.982 123.813 244.511 123.856C245.04 123.899 245.566 123.739 245.981 123.409C246.339 123.14 246.636 122.799 246.853 122.408C247.07 122.017 247.203 121.585 247.242 121.139C247.331 120.144 246.839 119.037 246.136 118.951L246.297 118.019C244.943 117.775 243.276 117.726 242.551 119.37C242.306 120 242.231 120.683 242.333 121.351C242.435 122.019 242.71 122.649 243.132 123.177V123.177Z" fill="#6C63FF"/>
<path d="M151.072 190.222C155.737 190.222 159.519 185.15 159.519 178.894C159.519 172.638 155.737 167.567 151.072 167.567C146.407 167.567 142.625 172.638 142.625 178.894C142.625 185.15 146.407 190.222 151.072 190.222Z" fill="#E6E6E6"/>
<path d="M305.441 330.486C309.474 329.412 312.137 326.267 311.39 323.462C310.643 320.656 306.768 319.253 302.735 320.327C298.702 321.401 296.039 324.546 296.786 327.351C297.533 330.157 301.408 331.56 305.441 330.486Z" fill="#E6E6E6"/>
<path d="M256.047 331.4C260.08 330.326 262.743 327.181 261.996 324.375C261.249 321.57 257.374 320.166 253.341 321.24C249.308 322.314 246.645 325.459 247.392 328.265C248.139 331.07 252.014 332.474 256.047 331.4Z" fill="#E6E6E6"/>
<path d="M314.216 289.389C318.249 288.315 320.913 285.17 320.166 282.365C319.418 279.559 315.544 278.155 311.511 279.229C307.478 280.304 304.814 283.448 305.561 286.254C306.308 289.059 310.183 290.463 314.216 289.389Z" fill="#E6E6E6"/>
<path d="M328.785 271.919C330.606 271.694 331.819 269.389 331.495 266.771C331.17 264.154 329.431 262.215 327.61 262.44C325.789 262.666 324.576 264.971 324.901 267.589C325.225 270.206 326.964 272.145 328.785 271.919Z" fill="#E6E6E6"/>
<path d="M332.473 240.914C334.294 240.688 335.507 238.383 335.183 235.766C334.858 233.148 333.119 231.209 331.298 231.435C329.477 231.661 328.264 233.966 328.589 236.583C328.913 239.201 330.652 241.14 332.473 240.914Z" fill="#E6E6E6"/>
<path d="M282.681 300.518C284.502 300.292 285.715 297.987 285.391 295.369C285.066 292.752 283.327 290.813 281.506 291.039C279.685 291.264 278.472 293.569 278.797 296.187C279.121 298.805 280.86 300.744 282.681 300.518Z" fill="#E6E6E6"/>
<path d="M307.654 309.557C309.475 309.331 310.688 307.026 310.364 304.409C310.039 301.791 308.3 299.852 306.479 300.078C304.658 300.304 303.445 302.609 303.77 305.226C304.094 307.844 305.834 309.783 307.654 309.557Z" fill="#E6E6E6"/>
<path d="M277.332 335.16C279.153 334.934 280.366 332.629 280.042 330.011C279.717 327.394 277.978 325.455 276.157 325.681C274.336 325.906 273.123 328.211 273.447 330.829C273.772 333.446 275.511 335.385 277.332 335.16Z" fill="#E6E6E6"/>
<path d="M59.9116 289.005C63.9444 287.931 66.608 284.786 65.8609 281.98C65.1137 279.175 61.2388 277.771 57.2059 278.845C53.1731 279.919 50.5095 283.064 51.2566 285.87C52.0038 288.675 55.8787 290.079 59.9116 289.005Z" fill="#E6E6E6"/>
<path d="M10.5151 289.92C14.548 288.846 17.2116 285.701 16.4645 282.895C15.7173 280.09 11.8423 278.686 7.80945 279.76C3.77659 280.834 1.113 283.979 1.86015 286.785C2.60729 289.59 6.48223 290.994 10.5151 289.92Z" fill="#E6E6E6"/>
<path d="M68.6885 247.906C72.7213 246.832 75.385 243.687 74.6378 240.882C73.8907 238.076 70.0157 236.673 65.9828 237.747C61.9499 238.821 59.2864 241.966 60.0335 244.771C60.7807 247.577 64.6556 248.98 68.6885 247.906Z" fill="#E6E6E6"/>
<path d="M83.256 230.438C85.0769 230.212 86.29 227.907 85.9654 225.29C85.6409 222.672 83.9016 220.733 82.0807 220.959C80.2598 221.185 79.0468 223.49 79.3713 226.107C79.6959 228.725 81.435 230.664 83.256 230.438Z" fill="#E6E6E6"/>
<path d="M86.944 199.432C88.7649 199.207 89.9779 196.902 89.6534 194.284C89.3289 191.667 87.5896 189.728 85.7687 189.953C83.9478 190.179 82.7348 192.484 83.0593 195.102C83.3838 197.719 85.123 199.658 86.944 199.432Z" fill="#E6E6E6"/>
<path d="M37.1515 259.036C38.9724 258.81 40.1855 256.505 39.861 253.888C39.5365 251.27 37.7972 249.331 35.9763 249.557C34.1554 249.783 32.9423 252.088 33.2668 254.705C33.5914 257.323 35.3306 259.262 37.1515 259.036Z" fill="#E6E6E6"/>
<path d="M62.1252 268.075C63.9461 267.85 65.1591 265.545 64.8346 262.927C64.51 260.31 62.7708 258.371 60.9499 258.596C59.129 258.822 57.9159 261.127 58.2405 263.745C58.565 266.362 60.3042 268.301 62.1252 268.075Z" fill="#E6E6E6"/>
<path d="M31.8028 293.678C33.6238 293.452 34.8368 291.147 34.5123 288.53C34.1878 285.912 32.4485 283.973 30.6276 284.199C28.8067 284.425 27.5937 286.73 27.9182 289.347C28.2427 291.965 29.9819 293.904 31.8028 293.678Z" fill="#E6E6E6"/>
<path d="M360.017 99.0691C364.05 97.9951 366.714 94.8502 365.966 92.0447C365.219 89.2392 361.344 87.8356 357.311 88.9096C353.279 89.9836 350.615 93.1286 351.362 95.9341C352.109 98.7395 355.984 100.143 360.017 99.0691Z" fill="#E6E6E6"/>
<path d="M310.621 99.9842C314.653 98.9102 317.317 95.7652 316.57 92.9598C315.823 90.1543 311.948 88.7507 307.915 89.8247C303.882 90.8987 301.218 94.0437 301.966 96.8491C302.713 99.6546 306.588 101.058 310.621 99.9842Z" fill="#E6E6E6"/>
<path d="M368.794 57.9696C372.827 56.8955 375.49 53.7506 374.743 50.9451C373.996 48.1396 370.121 46.736 366.088 47.81C362.055 48.8841 359.392 52.029 360.139 54.8345C360.886 57.64 364.761 59.0436 368.794 57.9696Z" fill="#E6E6E6"/>
<path d="M383.361 40.5023C385.182 40.2765 386.395 37.9715 386.071 35.354C385.746 32.7364 384.007 30.7975 382.186 31.0232C380.365 31.249 379.152 33.554 379.477 36.1715C379.801 38.7891 381.541 40.728 383.361 40.5023Z" fill="#E6E6E6"/>
<path d="M387.05 9.49689C388.871 9.27113 390.084 6.96615 389.759 4.34859C389.435 1.73102 387.696 -0.207914 385.875 0.0178499C384.054 0.243614 382.841 2.54858 383.165 5.16615C383.49 7.78371 385.229 9.72266 387.05 9.49689Z" fill="#E6E6E6"/>
<path d="M337.257 69.1007C339.078 68.8749 340.291 66.5699 339.967 63.9524C339.642 61.3348 337.903 59.3959 336.082 59.6216C334.261 59.8474 333.048 62.1524 333.373 64.7699C333.697 67.3875 335.437 69.3264 337.257 69.1007Z" fill="#E6E6E6"/>
<path d="M362.231 78.1399C364.052 77.9141 365.265 75.6092 364.941 72.9916C364.616 70.374 362.877 68.4351 361.056 68.6609C359.235 68.8866 358.022 71.1916 358.346 73.8092C358.671 76.4267 360.41 78.3657 362.231 78.1399Z" fill="#E6E6E6"/>
<path d="M331.908 103.742C333.729 103.517 334.942 101.212 334.618 98.5941C334.293 95.9765 332.554 94.0376 330.733 94.2633C328.912 94.4891 327.699 96.7941 328.024 99.4116C328.348 102.029 330.087 103.968 331.908 103.742Z" fill="#E6E6E6"/>
<path d="M45.0694 296.032C36.9878 296.032 31.7338 294.024 29.4083 290.031C24.8225 282.159 32.5029 268.346 52.2356 248.976L53.8932 250.665C35.5636 268.658 27.594 282.216 31.4526 288.841C33.8944 293.031 41.1611 294.533 52.4717 293.182C63.6999 291.842 78.5799 287.846 96.6985 281.307C134 267.845 180.797 245.138 228.472 217.368C276.144 189.598 318.982 160.091 349.093 134.284C354.877 129.326 360.126 124.557 364.694 120.109C370.691 114.413 376.224 108.247 381.239 101.67C387.993 92.4995 390.272 85.4369 387.831 81.2459C383.753 74.2461 366.623 74.9043 339.594 83.1019L338.908 80.8373C367.907 72.0435 385.055 71.7797 389.876 80.0551C392.871 85.1966 390.606 92.9413 383.144 103.074C378.052 109.755 372.435 116.019 366.345 121.805C361.741 126.287 356.455 131.09 350.633 136.081C320.416 161.978 277.455 191.573 229.662 219.412C181.869 247.252 134.933 270.025 97.5019 283.534C79.2146 290.133 64.1586 294.17 52.7521 295.531C50.2033 295.849 47.638 296.016 45.0694 296.032V296.032Z" fill="#3F3D56"/>
</svg>
