<svg width="476" height="328" viewBox="0 0 476 328" fill="none" xmlns="http://www.w3.org/2000/svg">
<g clip-path="url(#clip0_73_365)">
<path d="M53.6113 34.4704C54.9959 34.4704 56.1183 33.3564 56.1183 31.9822C56.1183 30.608 54.9959 29.494 53.6113 29.494C52.2267 29.494 51.1042 30.608 51.1042 31.9822C51.1042 33.3564 52.2267 34.4704 53.6113 34.4704Z" fill="white"/>
<path d="M63.1264 34.4704C64.511 34.4704 65.6334 33.3564 65.6334 31.9822C65.6334 30.608 64.511 29.494 63.1264 29.494C61.7418 29.494 60.6194 30.608 60.6194 31.9822C60.6194 33.3564 61.7418 34.4704 63.1264 34.4704Z" fill="white"/>
<path d="M72.6413 34.4704C74.0259 34.4704 75.1483 33.3564 75.1483 31.9822C75.1483 30.608 74.0259 29.494 72.6413 29.494C71.2567 29.494 70.1343 30.608 70.1343 31.9822C70.1343 33.3564 71.2567 34.4704 72.6413 34.4704Z" fill="white"/>
<path d="M365.877 37.8278H47.52V39.584H365.877V37.8278Z" fill="white"/>
<path d="M366.15 0.20575H0.156006V232.846H366.15V0.20575Z" fill="#E6E6E6"/>
<path d="M365.994 0H0V15.4322H365.994V0Z" fill="#6C63FF"/>
<path d="M355.987 27.8795H10.9241V116.564H355.987V27.8795Z" fill="white"/>
<path d="M356.206 131.137H11.1423V219.822H356.206V131.137Z" fill="white"/>
<path d="M314.195 47.4984H127.447V55.7591H314.195V47.4984Z" fill="#E6E6E6"/>
<path d="M194.031 68.1498H127.447V76.4105H194.031V68.1498Z" fill="#E6E6E6"/>
<path d="M260.096 88.8013H127.447V97.062H260.096V88.8013Z" fill="#E6E6E6"/>
<path d="M113.401 175.026C113.411 181.04 111.647 186.926 108.327 191.957C107.631 193.018 106.869 194.034 106.044 195C104.11 197.274 101.857 199.26 99.3549 200.899C98.6743 201.346 97.9747 201.766 97.2561 202.156C93.5159 204.209 89.3876 205.471 85.1316 205.862C84.1642 205.956 83.1808 206 82.1887 206C79.4694 206.003 76.7616 205.652 74.1344 204.955C72.6453 204.567 71.1886 204.065 69.7774 203.454C69.0561 203.144 68.3511 202.808 67.6625 202.445C66.0059 201.582 64.4323 200.57 62.9611 199.423C62.2767 198.894 61.6168 198.336 60.9815 197.751C57.1803 194.255 54.3161 189.874 52.6474 185.005C50.9786 180.135 50.5579 174.93 51.4233 169.859C52.2886 164.788 54.4127 160.01 57.6038 155.958C60.795 151.905 64.9527 148.705 69.7018 146.646C74.4508 144.588 79.6416 143.735 84.8057 144.166C89.9698 144.596 94.9445 146.296 99.281 149.112C103.617 151.929 107.179 155.772 109.644 160.296C112.109 164.821 113.401 169.883 113.401 175.026V175.026Z" fill="#6C63FF"/>
<path d="M84.1038 160.566H80.2776V189.478H84.1038V160.566Z" fill="white"/>
<path d="M96.7557 173.123H67.625V176.921H96.7557V173.123Z" fill="white"/>
<path d="M281.749 156H95V164.261H281.749V156Z" fill="#E6E6E6"/>
<path d="M161.585 176.651H95V184.912H161.585V176.651Z" fill="#E6E6E6"/>
<path d="M227.649 197.303H95V205.564H227.649V197.303Z" fill="#E6E6E6"/>
<path d="M24.2059 10.2294C25.6264 10.2294 26.778 9.0865 26.778 7.67663C26.778 6.26676 25.6264 5.12384 24.2059 5.12384C22.7853 5.12384 21.6338 6.26676 21.6338 7.67663C21.6338 9.0865 22.7853 10.2294 24.2059 10.2294Z" fill="white"/>
<path d="M33.9691 10.2294C35.3896 10.2294 36.5411 9.0865 36.5411 7.67663C36.5411 6.26676 35.3896 5.12384 33.9691 5.12384C32.5485 5.12384 31.397 6.26676 31.397 7.67663C31.397 9.0865 32.5485 10.2294 33.9691 10.2294Z" fill="white"/>
<path d="M14.4173 10.2294C15.8378 10.2294 16.9894 9.0865 16.9894 7.67663C16.9894 6.26676 15.8378 5.12384 14.4173 5.12384C12.9968 5.12384 11.8452 6.26676 11.8452 7.67663C11.8452 9.0865 12.9968 10.2294 14.4173 10.2294Z" fill="white"/>
<path d="M100.901 97.1346C98.1735 95.7079 95.326 94.5186 92.391 93.5801L92.0168 89.4712L76.8389 87.8481L74.9099 93.1L69.4629 95.1288C69.2679 95.2021 69.0824 95.298 68.9101 95.4145H68.9042C68.6002 95.6184 68.3413 95.8817 68.1433 96.1883C67.9453 96.4948 67.8124 96.8382 67.7526 97.1975C67.6945 97.5548 67.7082 97.9199 67.7931 98.2719L68.081 99.4434C68.4954 99.6892 68.9217 99.9235 69.3476 100.146L69.6183 100.283C70.2402 100.604 70.8737 100.906 71.5243 101.186C71.6567 101.244 71.8006 101.301 71.9331 101.358C71.9446 101.364 71.9502 101.364 71.9617 101.369C72.2671 101.495 72.5721 101.615 72.8831 101.729C73.9045 102.116 74.9462 102.448 76.0038 102.724C78.7031 103.438 81.4847 103.799 84.2781 103.798C85.2973 103.798 86.3049 103.752 87.301 103.655C89.5771 103.447 91.8241 102.996 94.0034 102.312C94.009 102.312 94.0149 102.307 94.0205 102.307C95.3972 101.871 96.7421 101.342 98.0455 100.724C98.0511 100.718 98.0626 100.718 98.0685 100.712C98.362 100.575 98.6443 100.426 98.9322 100.283L99.0703 100.215C99.3005 100.095 99.5311 99.9749 99.7613 99.8492C100.337 99.5349 100.901 99.2034 101.46 98.8491C101.615 98.7576 101.765 98.6605 101.921 98.5576C102.139 98.4148 102.358 98.2662 102.571 98.1119C102.036 97.769 101.477 97.4432 100.901 97.1346Z" fill="#3F3D56"/>
<path d="M72.4168 99.6663L71.4668 95.4088H68.9851C68.9601 95.4091 68.9351 95.411 68.9103 95.4145H68.9044C68.0126 95.4894 67.1537 95.784 66.4056 96.2717C65.8982 96.5932 65.447 96.9947 65.0698 97.4604C65.8067 98.0147 66.5726 98.529 67.3615 99.0205L67.3961 99.0376C67.6204 99.1748 67.8509 99.3119 68.0812 99.4434C68.4956 99.6891 68.9219 99.9234 69.3478 100.146L69.6186 100.283C70.2405 100.603 70.8739 100.906 71.5245 101.186C71.6569 101.244 71.8009 101.301 71.9333 101.358C71.9448 101.364 71.9505 101.364 71.962 101.369C72.2673 101.495 72.5724 101.615 72.8833 101.729L72.4168 99.6663Z" fill="#3F3D56"/>
<path d="M83.8321 85.2504C89.8693 85.2504 94.7634 80.393 94.7634 74.4011C94.7634 68.4093 89.8693 63.5519 83.8321 63.5519C77.795 63.5519 72.9009 68.4093 72.9009 74.4011C72.9009 80.393 77.795 85.2504 83.8321 85.2504Z" fill="#FFB8B8"/>
<path d="M76.493 69.1167C77.6246 70.4458 79.5396 70.8209 81.3062 70.9746C85.4363 71.201 89.5782 70.8654 93.6166 69.9769C93.8669 72.3841 93.1846 74.9796 94.6131 76.9597C95.2828 74.5624 95.6722 72.0967 95.7736 69.611C95.8803 68.5446 95.74 67.4681 95.3634 66.4636C95.1621 65.9603 94.8226 65.523 94.3834 65.2017C93.9441 64.8803 93.4229 64.6877 92.8789 64.6456C93.6933 64.0325 94.6472 63.6277 95.6565 63.467L92.1856 61.7358L93.077 60.8276L86.7931 60.446L88.6131 59.2984C85.8738 58.9248 83.1025 58.838 80.3449 59.0394C79.0644 59.133 77.7256 59.3119 76.688 60.0482C75.6505 60.7846 75.051 62.2482 75.6951 63.3293C74.8887 63.4607 74.1294 63.7943 73.4893 64.2984C72.8491 64.8026 72.3492 65.4605 72.037 66.2101C71.6421 67.4014 71.5468 68.6705 71.7593 69.9068C71.996 71.8904 72.4605 73.8406 73.1436 75.7194L76.493 69.1167Z" fill="#2F2E41"/>
<path d="M114.571 62.6402C113.037 58.2672 110.561 54.2788 107.314 50.9533C104.068 47.6277 100.13 45.045 95.7744 43.3853C91.419 41.7255 86.7512 41.0287 82.0966 41.3433C77.442 41.658 72.9126 42.9765 68.8242 45.2071C64.7358 47.4376 61.1868 50.5265 58.4248 54.2582C55.6628 57.9899 53.7541 62.2747 52.832 66.8138C51.9099 71.3528 51.9965 76.0369 53.0857 80.5393C54.175 85.0417 56.2407 89.2541 59.1388 92.8828C59.4267 93.2428 59.7261 93.6029 60.0314 93.9515C60.0545 93.9743 60.0716 93.9972 60.0947 94.02C60.8452 94.8784 61.643 95.6949 62.4842 96.466C62.7032 96.666 62.9335 96.8717 63.1637 97.066C63.6012 97.4546 64.0505 97.8261 64.5169 98.1804C64.7011 98.3233 64.8796 98.4661 65.0697 98.6033C65.8066 99.1576 66.5724 99.672 67.3613 100.163L67.3959 100.181C67.6203 100.318 67.8508 100.455 68.0811 100.586C68.4955 100.832 68.9218 101.066 69.3477 101.289L69.6184 101.426C70.2403 101.746 70.8738 102.049 71.5243 102.329C71.6568 102.386 71.8007 102.444 71.9332 102.501C71.9447 102.506 71.9503 102.506 71.9618 102.512C72.2672 102.638 72.5722 102.758 72.8832 102.872C73.9046 103.259 74.9464 103.591 76.0039 103.867C78.7032 104.581 81.4848 104.942 84.2782 104.941C85.2974 104.941 86.305 104.895 87.3011 104.798C89.5772 104.59 91.8242 104.139 94.0035 103.455C94.0091 103.455 94.015 103.449 94.0206 103.449C95.3973 103.014 96.7422 102.485 98.0456 101.866C98.0512 101.861 98.0627 101.861 98.0686 101.855C98.3621 101.718 98.6444 101.569 98.9323 101.426L99.0704 101.358C99.3006 101.238 99.5312 101.118 99.7614 100.992C100.337 100.678 100.902 100.346 101.46 99.992C101.615 99.9005 101.765 99.8034 101.921 99.7005C102.139 99.5577 102.358 99.4091 102.571 99.2548C102.853 99.0605 103.136 98.8605 103.412 98.6547C103.498 98.5919 103.59 98.529 103.677 98.4604C109.071 94.3966 113.031 88.7419 114.988 82.3071C116.945 75.8723 116.799 68.9877 114.571 62.6402H114.571ZM102.617 97.0717C102.427 97.2203 102.232 97.3632 102.036 97.4946C101.846 97.6375 101.656 97.7746 101.46 97.9004C101.293 98.0204 101.126 98.1347 100.953 98.2433L100.901 98.2775C100.775 98.3633 100.648 98.4433 100.521 98.5233C100.043 98.8204 99.5597 99.1062 99.0703 99.3805C99.0186 99.4091 98.9666 99.4376 98.9149 99.4662C98.6961 99.5862 98.4774 99.7005 98.2586 99.8148C98.2297 99.832 98.1951 99.8434 98.1664 99.8605L98.1318 99.8777C97.8555 100.021 97.5732 100.158 97.2912 100.289C96.2024 100.81 95.0812 101.26 93.9342 101.638C93.7844 101.689 93.6348 101.741 93.4853 101.786C91.4225 102.438 89.2952 102.867 87.14 103.067C86.1956 103.152 85.2397 103.198 84.2781 103.198C81.636 103.203 79.0048 102.861 76.4532 102.181C75.1437 101.842 73.8602 101.41 72.6126 100.889C72.5491 100.861 72.4799 100.838 72.4167 100.809C72.3478 100.781 72.2842 100.758 72.221 100.729C72.1518 100.701 72.0886 100.672 72.0194 100.638C71.4782 100.403 70.9426 100.146 70.4188 99.8777L70.1655 99.7463C69.5262 99.4148 68.8986 99.0605 68.2883 98.6833C68.1097 98.5747 67.9256 98.4604 67.7527 98.3404C67.7069 98.3118 67.6664 98.2832 67.6202 98.2547C67.2114 97.9861 66.8027 97.7061 66.4054 97.4146C66.1349 97.2146 65.8642 97.0146 65.5993 96.8088C65.156 96.4774 64.7297 96.1231 64.3153 95.7573C64.0966 95.5745 63.8834 95.3744 63.6762 95.1858C62.8598 94.4377 62.087 93.6439 61.3615 92.8085C61.1198 92.5342 60.8836 92.2599 60.659 91.9741C60.6079 91.9176 60.5598 91.8585 60.515 91.797C56.7739 87.1115 54.5236 81.4263 54.0512 75.4664C53.5788 69.5065 54.9057 63.542 57.8626 58.3336C60.8195 53.1252 65.2725 48.9089 70.6535 46.2224C76.0346 43.536 82.1 42.5011 88.0761 43.2498C94.0521 43.9985 99.6681 46.4968 104.208 50.4262C108.747 54.3556 112.005 59.5379 113.565 65.3122C115.125 71.0865 114.917 77.1912 112.967 82.8476C111.017 88.5041 107.414 93.456 102.617 97.0717Z" fill="#3F3D56"/>
<path d="M387.55 215.43C386.016 211.057 383.54 207.069 380.294 203.743C377.047 200.418 373.109 197.835 368.754 196.175C364.398 194.516 359.731 193.819 355.076 194.134C350.422 194.448 345.892 195.767 341.804 197.997C337.715 200.228 334.166 203.317 331.404 207.048C328.642 210.78 326.734 215.065 325.812 219.604C324.889 224.143 324.976 228.827 326.065 233.329C327.154 237.832 329.22 242.044 332.118 245.673C332.406 246.033 332.706 246.393 333.011 246.742C333.034 246.764 333.051 246.787 333.074 246.81C333.825 247.668 334.622 248.485 335.464 249.256C335.682 249.456 335.913 249.662 336.143 249.856C336.581 250.245 337.03 250.616 337.496 250.971C338.407 251.683 339.356 252.345 340.341 252.954L340.375 252.971C341.014 253.365 341.665 253.731 342.327 254.079L342.598 254.217C343.219 254.537 343.853 254.839 344.503 255.12C344.636 255.177 344.78 255.234 344.912 255.291C344.924 255.297 344.93 255.297 344.941 255.302C346.256 255.845 347.606 256.298 348.983 256.657C351.683 257.371 354.464 257.732 357.257 257.731C358.277 257.731 359.284 257.685 360.28 257.588C362.556 257.38 364.803 256.93 366.983 256.245C366.989 256.245 366.994 256.24 367 256.24C368.377 255.804 369.721 255.275 371.025 254.657C371.03 254.651 371.042 254.651 371.048 254.645C371.341 254.508 371.624 254.359 371.911 254.217L372.05 254.148C372.28 254.028 372.51 253.908 372.741 253.782C373.316 253.468 373.881 253.136 374.439 252.782C374.595 252.691 374.744 252.594 374.9 252.491C375.406 252.159 375.907 251.805 376.391 251.445C376.478 251.382 376.57 251.319 376.656 251.251C382.05 247.187 386.01 241.532 387.967 235.097C389.924 228.662 389.778 221.778 387.55 215.43Z" fill="white"/>
<path d="M367.843 239.018C370.498 239.018 372.65 236.882 372.65 234.247C372.65 231.611 370.498 229.475 367.843 229.475C365.188 229.475 363.035 231.611 363.035 234.247C363.035 236.882 365.188 239.018 367.843 239.018Z" fill="#2F2E41"/>
<path d="M369.182 229.607C370.014 229.607 370.832 229.821 371.556 230.229C372.279 230.636 372.884 231.224 373.31 231.933C373.737 232.642 373.971 233.448 373.989 234.274C374.007 235.1 373.809 235.916 373.414 236.643C373.831 236.125 374.135 235.527 374.305 234.887C374.476 234.246 374.511 233.578 374.407 232.923C374.304 232.269 374.063 231.643 373.703 231.086C373.342 230.528 372.868 230.052 372.311 229.686C371.754 229.321 371.127 229.075 370.469 228.963C369.811 228.852 369.137 228.877 368.489 229.039C367.842 229.2 367.235 229.493 366.709 229.9C366.182 230.307 365.746 230.818 365.429 231.401C365.879 230.841 366.45 230.389 367.099 230.078C367.749 229.768 368.461 229.606 369.183 229.607H369.182Z" fill="#2F2E41"/>
<path d="M358.859 234.236C366.659 234.236 372.981 227.961 372.981 220.22C372.981 212.479 366.659 206.204 358.859 206.204C351.06 206.204 344.737 212.479 344.737 220.22C344.737 227.961 351.06 234.236 358.859 234.236Z" fill="#2F2E41"/>
<path d="M347.776 211.524C350.209 208.808 353.61 207.136 357.262 206.862C360.914 206.588 364.53 207.732 367.347 210.054C367.232 209.945 367.117 209.835 366.998 209.73C364.208 207.249 360.54 205.97 356.8 206.174C353.06 206.378 349.555 208.048 347.056 210.817C344.557 213.586 343.268 217.226 343.474 220.938C343.679 224.65 345.362 228.128 348.152 230.609C348.178 230.633 348.205 230.656 348.232 230.68C348.352 230.786 348.475 230.886 348.598 230.987C345.945 228.482 344.376 225.052 344.223 221.42C344.069 217.789 345.344 214.241 347.776 211.524H347.776Z" fill="#2F2E41"/>
<path d="M358.74 234.117C363.763 234.117 367.835 230.076 367.835 225.09C367.835 220.105 363.763 216.063 358.74 216.063C353.716 216.063 349.644 220.105 349.644 225.09C349.644 230.076 353.716 234.117 358.74 234.117Z" fill="#A0616A"/>
<path d="M375.015 248.61V251.639C374.457 251.993 373.892 252.325 373.317 252.639C373.086 252.765 372.856 252.885 372.626 253.005L372.487 253.074C372.2 253.216 371.917 253.365 371.624 253.502C371.618 253.508 371.606 253.508 371.601 253.514C370.297 254.132 368.953 254.661 367.576 255.097C367.57 255.097 367.565 255.102 367.559 255.102C365.379 255.787 363.132 256.237 360.856 256.445C359.86 256.542 358.853 256.588 357.833 256.588C355.04 256.589 352.259 256.228 349.559 255.514C348.182 255.155 346.832 254.702 345.517 254.159C345.506 254.154 345.5 254.154 345.488 254.148C345.356 254.091 345.212 254.034 345.08 253.977C344.429 253.697 343.795 253.394 343.174 253.074L342.903 252.936C342.241 252.588 341.59 252.222 340.951 251.828L340.917 251.811C339.932 251.202 338.983 250.54 338.072 249.828C337.606 249.473 337.157 249.102 336.719 248.713C336.489 248.519 336.258 248.313 336.04 248.113C335.198 247.342 334.401 246.525 333.65 245.667C333.749 245.072 333.896 244.485 334.088 243.913L334.093 243.907C334.128 243.809 334.168 243.714 334.214 243.621C334.246 243.539 334.282 243.459 334.324 243.381C335.354 241.467 337.22 240.993 339.535 240.89C340.842 240.833 342.287 240.895 343.813 240.878C344.619 240.873 345.454 240.844 346.289 240.77C351.557 240.295 350.602 237.209 350.838 235.546C351.074 233.935 352.536 235.329 352.634 235.421L352.64 235.426C355.621 236.811 358.92 237.385 362.198 237.089C362.762 237.021 363.327 236.981 363.891 236.964C365.376 236.946 365.054 237.369 364.542 237.718C364.293 237.88 364.033 238.026 363.764 238.152C363.764 238.152 363.528 239.581 363.286 241.718C363.056 243.764 367.006 244.724 367.334 244.799C367.341 244.803 367.349 244.805 367.357 244.804C368.8 244.433 370.318 244.473 371.739 244.919H371.745C372.557 245.215 373.281 245.708 373.852 246.352C374.423 246.997 374.823 247.773 375.015 248.61Z" fill="#6C63FF"/>
<path d="M345.574 252.285C345.574 252.708 345.563 253.114 345.546 253.497C345.54 253.725 345.529 253.948 345.517 254.159C345.506 254.154 345.5 254.154 345.488 254.148C345.356 254.091 345.212 254.034 345.079 253.977C344.429 253.697 343.795 253.394 343.173 253.074L342.903 252.936C342.241 252.588 341.59 252.222 340.951 251.828C340.968 251.628 340.997 251.428 341.026 251.228C341.089 250.788 341.141 250.342 341.176 249.902C341.402 246.81 340.837 243.712 339.534 240.895V240.89C339.419 240.661 339.35 240.535 339.35 240.535C339.35 240.535 341.026 239.107 343.415 240.535C343.568 240.624 343.703 240.741 343.813 240.878C345.252 242.564 345.644 248.233 345.574 252.285Z" fill="#2F2E41"/>
<path d="M371.722 251.508C371.699 252.148 371.664 252.816 371.624 253.497V253.502C371.618 253.508 371.606 253.508 371.601 253.514C370.297 254.132 368.953 254.661 367.576 255.097C367.57 255.097 367.565 255.102 367.559 255.102L367.495 253.497L367.49 253.285L367.184 245.467C367.176 245.29 367.204 245.113 367.267 244.948C367.33 244.782 367.425 244.63 367.549 244.502C367.672 244.374 367.82 244.272 367.984 244.202C368.148 244.132 368.325 244.096 368.503 244.096H371.422C371.566 244.096 371.67 244.387 371.739 244.913V244.919C371.881 247.113 371.875 249.314 371.722 251.508Z" fill="#2F2E41"/>
<path d="M350.96 213.807V222.836H353.067L355.747 219.985L355.388 222.836H364.699L364.123 219.985L365.275 222.836H366.759V213.807H350.96Z" fill="#2F2E41"/>
<path d="M349.524 224.497C349.921 224.497 350.242 223.912 350.242 223.19C350.242 222.469 349.921 221.884 349.524 221.884C349.128 221.884 348.806 222.469 348.806 223.19C348.806 223.912 349.128 224.497 349.524 224.497Z" fill="#A0616A"/>
<path d="M367.955 224.497C368.352 224.497 368.673 223.912 368.673 223.19C368.673 222.469 368.352 221.884 367.955 221.884C367.559 221.884 367.237 222.469 367.237 223.19C367.237 223.912 367.559 224.497 367.955 224.497Z" fill="#A0616A"/>
<path d="M376.967 250.302C376.483 250.662 375.982 251.016 375.476 251.348C375.32 251.451 375.171 251.548 375.015 251.639C374.457 251.994 373.892 252.325 373.317 252.639C373.086 252.765 372.856 252.885 372.626 253.005V246.707C372.626 246.707 373.547 247.439 375.015 248.656C375.199 248.81 375.389 248.97 375.591 249.142C376.017 249.496 376.478 249.885 376.967 250.302Z" fill="#6C63FF"/>
<path d="M387.55 215.43C386.016 211.057 383.54 207.069 380.294 203.743C377.047 200.418 373.109 197.835 368.754 196.175C364.398 194.516 359.731 193.819 355.076 194.134C350.422 194.448 345.892 195.767 341.804 197.997C337.715 200.228 334.166 203.317 331.404 207.048C328.642 210.78 326.734 215.065 325.812 219.604C324.889 224.143 324.976 228.827 326.065 233.329C327.154 237.832 329.22 242.044 332.118 245.673C332.406 246.033 332.706 246.393 333.011 246.742C333.034 246.764 333.051 246.787 333.074 246.81C333.825 247.668 334.622 248.485 335.464 249.256C335.682 249.456 335.913 249.662 336.143 249.856C336.581 250.245 337.03 250.616 337.496 250.971C338.407 251.683 339.356 252.345 340.341 252.954L340.375 252.971C341.014 253.365 341.665 253.731 342.327 254.079L342.598 254.217C343.219 254.537 343.853 254.839 344.503 255.12C344.636 255.177 344.78 255.234 344.912 255.291C344.924 255.297 344.93 255.297 344.941 255.302C346.256 255.845 347.606 256.298 348.983 256.657C351.683 257.371 354.464 257.732 357.257 257.731C358.277 257.731 359.284 257.685 360.28 257.588C362.556 257.38 364.803 256.93 366.983 256.245C366.989 256.245 366.994 256.24 367 256.24C368.377 255.804 369.721 255.275 371.025 254.657C371.03 254.651 371.042 254.651 371.048 254.645C371.341 254.508 371.624 254.359 371.911 254.217L372.05 254.148C372.28 254.028 372.51 253.908 372.741 253.782C373.316 253.468 373.881 253.136 374.439 252.782C374.595 252.691 374.744 252.594 374.9 252.491C375.406 252.159 375.907 251.805 376.391 251.445C376.478 251.382 376.57 251.319 376.656 251.251C382.05 247.187 386.01 241.532 387.967 235.097C389.924 228.662 389.778 221.778 387.55 215.43ZM375.597 249.862C375.406 250.011 375.211 250.153 375.015 250.285C374.825 250.428 374.635 250.565 374.439 250.691C374.272 250.811 374.105 250.925 373.932 251.033C373.788 251.131 373.644 251.222 373.501 251.313C373.023 251.611 372.539 251.896 372.05 252.171C371.998 252.199 371.946 252.228 371.894 252.256C371.675 252.376 371.457 252.491 371.238 252.605C371.209 252.622 371.174 252.634 371.146 252.651L371.111 252.668C370.835 252.811 370.553 252.948 370.27 253.079C369.182 253.6 368.06 254.05 366.913 254.428C366.764 254.479 366.614 254.531 366.464 254.577C364.402 255.228 362.274 255.657 360.119 255.857C359.175 255.942 358.219 255.988 357.257 255.988C354.615 255.994 351.984 255.651 349.432 254.971C348.123 254.632 346.839 254.2 345.592 253.679C345.459 253.628 345.327 253.571 345.2 253.519C345.131 253.491 345.068 253.462 344.999 253.428C344.457 253.194 343.922 252.936 343.398 252.668L343.145 252.536C342.506 252.205 341.878 251.851 341.267 251.473C341.043 251.336 340.818 251.193 340.6 251.045C339.909 250.593 339.235 250.108 338.579 249.599C338.135 249.268 337.709 248.913 337.294 248.548C337.076 248.365 336.863 248.165 336.655 247.976C335.839 247.228 335.066 246.434 334.341 245.599C334.099 245.324 333.863 245.05 333.638 244.764C333.587 244.708 333.539 244.649 333.494 244.587C329.753 239.902 327.503 234.217 327.03 228.257C326.558 222.297 327.885 216.332 330.842 211.124C333.799 205.915 338.252 201.699 343.633 199.013C349.014 196.326 355.079 195.291 361.055 196.04C367.031 196.789 372.647 199.287 377.187 203.216C381.727 207.146 384.984 212.328 386.544 218.102C388.104 223.877 387.896 229.981 385.946 235.638C383.997 241.294 380.393 246.246 375.597 249.862Z" fill="#3F3D56"/>
<path d="M385.744 212.934C386.54 212.648 387.263 212.192 387.862 211.598C388.461 211.005 388.921 210.288 389.211 209.498C389.5 208.709 389.612 207.866 389.538 207.029C389.464 206.192 389.206 205.382 388.782 204.654L402.232 189.2L391.629 187.83L380.483 202.716C379.299 203.504 378.447 204.695 378.089 206.064C377.732 207.433 377.892 208.885 378.541 210.144C379.189 211.404 380.28 212.384 381.608 212.898C382.936 213.412 384.407 213.425 385.744 212.934V212.934Z" fill="#FFB8B8"/>
<path d="M461.556 216.2C462.114 215.568 462.525 214.823 462.762 214.016C462.998 213.209 463.053 212.361 462.924 211.531C462.794 210.701 462.483 209.909 462.011 209.211C461.54 208.513 460.92 207.926 460.195 207.492L464.471 187.516L454.516 191.39L451.982 209.766C451.328 211.022 451.161 212.473 451.512 213.844C451.864 215.215 452.71 216.41 453.89 217.203C455.07 217.996 456.502 218.332 457.915 218.147C459.328 217.962 460.623 217.269 461.556 216.2Z" fill="#FFB8B8"/>
<path d="M413.382 320.307L406.323 320.307L402.965 293.283L413.383 293.283L413.382 320.307Z" fill="#FFB8B8"/>
<path d="M415.182 327.099L392.421 327.098V326.812C392.421 325.657 392.65 324.514 393.095 323.447C393.54 322.38 394.193 321.411 395.016 320.595C395.838 319.778 396.815 319.13 397.89 318.688C398.965 318.247 400.117 318.019 401.28 318.019H401.281L415.183 318.02L415.182 327.099Z" fill="#2F2E41"/>
<path d="M447.93 320.307L440.871 320.307L437.513 293.283L447.931 293.283L447.93 320.307Z" fill="#FFB8B8"/>
<path d="M449.73 327.099L426.969 327.098V326.812C426.969 325.657 427.198 324.514 427.643 323.447C428.088 322.38 428.741 321.411 429.564 320.595C430.386 319.778 431.363 319.13 432.438 318.688C433.513 318.247 434.665 318.019 435.828 318.019H435.829L449.731 318.02L449.73 327.099Z" fill="#2F2E41"/>
<path d="M414.118 306.196L404.125 305.799C403.443 305.77 402.8 305.476 402.335 304.981C401.87 304.485 401.62 303.828 401.639 303.151L404.454 211.498L404.638 211.433C422.151 205.145 436.64 205.62 448.932 212.884L449.069 212.966L450.756 302.232C450.762 302.573 450.7 302.913 450.573 303.231C450.445 303.548 450.256 303.837 450.014 304.081C449.773 304.325 449.485 304.519 449.168 304.651C448.85 304.784 448.509 304.852 448.165 304.852H439.739C439.139 304.851 438.557 304.643 438.094 304.265C437.63 303.887 437.313 303.361 437.196 302.776L425.718 244.823C425.678 244.623 425.568 244.443 425.406 244.316C425.245 244.19 425.044 244.124 424.838 244.132C424.633 244.139 424.437 244.219 424.285 244.358C424.134 244.496 424.037 244.683 424.013 244.886L416.793 303.936C416.714 304.559 416.409 305.132 415.936 305.548C415.462 305.964 414.852 306.195 414.22 306.198C414.186 306.198 414.152 306.197 414.118 306.196Z" fill="#2F2E41"/>
<path d="M423.839 131.122C431.65 131.122 437.981 124.837 437.981 117.086C437.981 109.334 431.65 103.049 423.839 103.049C416.029 103.049 409.697 109.334 409.697 117.086C409.697 124.837 416.029 131.122 423.839 131.122Z" fill="#FFB8B8"/>
<path d="M390.523 201.778C390.033 201.586 389.613 201.25 389.319 200.815L386.587 196.756C386.292 196.316 386.141 195.797 386.153 195.268C386.165 194.74 386.34 194.228 386.655 193.802L397.671 178.962L404.573 146.096C404.97 145.081 405.565 144.154 406.323 143.367C407.081 142.581 407.988 141.951 408.992 141.512C409.996 141.074 411.077 140.836 412.174 140.812C413.27 140.789 414.36 140.98 415.382 141.375C416.404 141.77 417.338 142.361 418.13 143.114C418.922 143.868 419.556 144.768 419.997 145.765C420.438 146.762 420.676 147.835 420.699 148.923C420.722 150.012 420.528 151.094 420.129 152.108L416.868 173.025C415.878 179.373 412.6 185.149 407.641 189.278L393.14 201.356C392.861 201.588 392.536 201.759 392.186 201.858C391.836 201.957 391.468 201.982 391.108 201.932C390.908 201.903 390.711 201.852 390.523 201.778Z" fill="#3F3D56"/>
<path d="M460.952 203.267C460.456 203.445 459.917 203.468 459.407 203.333L454.654 202.079C454.14 201.942 453.68 201.651 453.338 201.247C452.995 200.842 452.786 200.343 452.739 199.817L451.129 181.453L434.43 152.257C434.052 151.235 433.881 150.149 433.926 149.061C433.971 147.973 434.232 146.905 434.694 145.918C435.156 144.93 435.809 144.042 436.616 143.305C437.424 142.569 438.37 141.997 439.4 141.623C440.43 141.249 441.525 141.081 442.621 141.127C443.717 141.173 444.793 141.434 445.787 141.893C446.782 142.352 447.675 143.001 448.417 143.804C449.159 144.606 449.733 145.546 450.109 146.568L461.585 164.408C465.069 169.822 466.453 176.308 465.48 182.659L462.635 201.235C462.58 201.592 462.45 201.933 462.253 202.237C462.057 202.541 461.798 202.801 461.493 202.999C461.324 203.109 461.142 203.199 460.952 203.267Z" fill="#3F3D56"/>
<path d="M408.371 142.012C410.8 139.368 413.796 137.299 417.138 135.958C420.48 134.617 424.083 134.037 427.681 134.263C427.918 134.277 428.153 134.294 428.388 134.312H428.388C431.798 134.579 435.111 135.567 438.106 137.207C441.101 138.848 443.708 141.104 445.754 143.825C447.833 146.584 449.296 149.752 450.043 153.117C450.79 156.482 450.805 159.967 450.086 163.338C447.344 176.221 448.038 189.592 452.1 202.127L455.894 213.819C456.015 214.194 456.049 214.591 455.991 214.981C455.934 215.37 455.787 215.741 455.562 216.065C455.337 216.39 455.04 216.658 454.694 216.851C454.348 217.043 453.962 217.154 453.566 217.175L434.171 218.21L429.207 209.701V218.475L405.633 219.733C405.587 219.735 405.54 219.737 405.493 219.737C405.136 219.736 404.782 219.663 404.454 219.52C404.127 219.378 403.832 219.169 403.59 218.908C403.347 218.648 403.162 218.34 403.045 218.004C402.928 217.668 402.883 217.312 402.912 216.958L405.576 184.166L402.234 161.894C401.693 158.335 401.964 154.702 403.026 151.261C404.088 147.82 405.914 144.659 408.371 142.012Z" fill="#3F3D56"/>
<path d="M433.668 130.485C432.358 131.233 427.183 131.728 426.814 130.274L426.806 130.242C426.55 129.177 426.763 128.065 426.836 126.972C426.91 125.879 426.802 124.678 426.052 123.875C424.654 122.377 422.167 123.171 420.146 122.792C418.961 122.53 417.914 121.848 417.2 120.875C416.486 119.902 416.153 118.703 416.265 117.504C416.293 117.277 416.339 117.05 416.389 116.823C416.516 116.247 416.506 115.65 416.361 115.078C416.216 114.507 415.939 113.976 415.552 113.529C415.166 113.081 414.68 112.729 414.133 112.499C413.587 112.269 412.994 112.168 412.401 112.204C410.358 112.32 408.153 112.935 406.462 111.433C405.155 110.271 404.836 107.248 405.411 105.603C406.376 102.838 412.558 101.39 415.258 100.595C418.596 99.6372 422.108 99.4302 425.537 99.9887C428.967 100.547 432.227 101.857 435.083 103.823C436.788 105.016 438.38 106.515 439.107 108.455C439.833 110.396 439.483 112.845 437.844 114.126C439.114 115.46 440.009 117.103 440.438 118.889C440.867 120.675 440.816 122.542 440.289 124.302C439.48 126.89 435.617 129.372 433.668 130.485Z" fill="#2F2E41"/>
<path d="M475.424 328H352.78C352.627 328 352.48 327.94 352.373 327.833C352.265 327.725 352.204 327.58 352.204 327.429C352.204 327.277 352.265 327.132 352.373 327.024C352.48 326.917 352.627 326.857 352.78 326.857H475.424C475.577 326.857 475.723 326.917 475.831 327.024C475.939 327.132 476 327.277 476 327.429C476 327.58 475.939 327.725 475.831 327.833C475.723 327.94 475.577 328 475.424 328Z" fill="#CCCCCC"/>
</g>
<defs>
<clipPath id="clip0_73_365">
<rect width="476" height="328" fill="white"/>
</clipPath>
</defs>
</svg>
