<svg width="485" height="419" viewBox="0 0 485 419" fill="none" xmlns="http://www.w3.org/2000/svg">
<g clip-path="url(#clip0_61_57)">
<path d="M109.451 295.556C87.5234 271.594 78.2622 248.596 83.3727 227.166C89.9311 199.666 119.067 180.652 163.31 175L163.473 174.577C119.846 180.151 91.1549 198.738 84.7553 225.573C79.7817 246.427 88.9085 270.88 110.455 294.425L109.451 295.556Z" fill="#F0F0F0"/>
<path d="M312.251 360.662C284.884 360.662 255.144 356.147 225.605 347.466C189.075 336.731 155.582 320.527 128.745 300.607L129.54 299.287C156.247 319.112 189.593 335.241 225.971 345.931C258.845 355.593 291.967 360.07 321.741 358.888L321.793 360.474C318.649 360.6 315.468 360.662 312.251 360.662Z" fill="#F0F0F0"/>
<path d="M375.034 350.678L374.576 349.175C399.052 339.988 414.361 325.19 418.848 306.378C424.551 282.464 412.161 254.714 383.96 228.238C355.615 201.628 314.742 179.548 268.867 166.067L269.233 164.532C315.308 178.073 356.38 200.267 384.883 227.026C413.529 253.919 426.083 282.245 420.23 306.785C415.615 326.136 399.987 341.314 375.034 350.678Z" fill="#F0F0F0"/>
<path d="M150.286 361.325C96.5118 334.85 55.0743 300.503 33.6079 264.609L34.7992 263.73C56.1172 299.376 97.3372 333.52 150.866 359.874L150.286 361.325Z" fill="#F0F0F0"/>
<path d="M339.354 407.191C333.807 407.191 328.166 407.053 322.43 406.778L322.491 405.192C365.298 407.25 403.067 401.563 431.722 388.744L432.257 390.217C407.26 401.398 375.399 407.191 339.354 407.191Z" fill="#F0F0F0"/>
<path d="M308.153 154.471C299.265 151.258 290.123 148.267 280.981 145.581C228.371 130.12 176.656 124.631 131.423 129.709L131.279 128.129C176.681 123.034 228.573 128.537 281.347 144.046C290.515 146.74 299.683 149.74 308.596 152.961L308.153 154.471Z" fill="#F0F0F0"/>
<path d="M67.078 277.985C45.1503 254.023 35.8891 229.024 40.9996 207.595C47.5581 180.095 76.694 161.081 120.937 155.428L121.1 157.006C77.4733 162.579 48.7819 181.166 42.3823 208.001C37.4086 228.856 46.5354 253.308 68.0815 276.854L67.078 277.985Z" fill="#F0F0F0"/>
<path d="M278.643 363.043C251.276 363.043 221.537 358.529 191.997 349.848C155.468 339.112 121.974 322.909 95.1375 302.988L95.9321 301.669C122.64 321.493 155.985 337.622 192.363 348.313C225.238 357.974 258.359 362.451 288.134 361.269L288.185 362.855C285.041 362.981 281.86 363.044 278.643 363.043Z" fill="#F0F0F0"/>
<path d="M341.426 353.06L340.968 351.556C365.445 342.369 380.753 327.571 385.24 308.76C390.943 284.846 378.553 257.095 350.352 230.619C322.007 204.009 281.134 181.929 235.259 168.448L235.625 166.913C281.7 180.454 322.773 202.648 351.275 229.407C379.922 256.301 392.475 284.626 386.623 309.166C382.008 328.517 366.379 343.695 341.426 353.06Z" fill="#F0F0F0"/>
<path d="M116.679 363.707C62.9039 337.232 21.4664 302.884 0 266.99L1.19131 266.112C22.5094 301.757 63.7293 335.902 117.258 362.255L116.679 363.707Z" fill="#F0F0F0"/>
<path d="M305.746 409.572C300.2 409.572 294.558 409.435 288.822 409.16L288.884 407.574C331.69 409.631 369.459 403.944 398.115 391.126L398.649 392.598C373.652 403.779 341.792 409.572 305.746 409.572Z" fill="#F0F0F0"/>
<path d="M274.545 156.852C265.657 153.64 256.515 150.649 247.373 147.962C194.764 132.501 143.048 127.012 97.8147 132.091L97.6709 130.511C143.073 125.416 194.965 130.918 247.739 146.427C256.907 149.122 266.075 152.121 274.988 155.343L274.545 156.852Z" fill="#F0F0F0"/>
<path d="M24.3757 235.464C34.6527 222.673 51.0463 214.877 65.9026 219.544C52.1971 230.311 42.364 246.112 38.1431 264.151C36.538 271.115 35.4059 279.046 30.1887 283.304C26.9425 285.953 22.6412 286.586 18.649 285.983C14.6567 285.379 10.8818 283.656 7.15784 281.948L6.15576 282.044C9.0368 265.206 14.0987 248.255 24.3757 235.464Z" fill="#F2F2F2"/>
<path d="M65.857 219.9C53.4362 223.238 42.2787 230.836 33.9693 241.615C32.1434 243.9 30.6534 246.49 29.5541 249.29C28.5626 252.056 28.2565 255.067 28.6676 258.009C29.0013 260.76 29.6296 263.532 29.3549 266.325C29.1952 267.753 28.7654 269.127 28.0937 270.357C27.422 271.588 26.5236 272.647 25.4575 273.465C22.8486 275.579 19.7109 276.527 16.6134 277.336C13.1742 278.234 9.5892 279.106 6.78573 281.643C6.44605 281.951 6.03621 281.348 6.37538 281.041C11.2529 276.626 18.0316 277.193 23.4282 273.987C25.9463 272.491 28.0736 270.143 28.5908 266.922C29.043 264.105 28.3973 261.246 28.0378 258.464C27.5988 255.6 27.7982 252.661 28.6184 249.903C29.5857 247.05 30.9834 244.4 32.7515 242.068C36.6567 236.745 41.2915 232.138 46.4861 228.414C52.3933 224.127 58.9176 220.994 65.7767 219.15C66.2013 219.036 66.2789 219.787 65.857 219.9L65.857 219.9Z" fill="white"/>
<path d="M36.461 237.969C35.0212 236.176 34.2025 233.873 34.151 231.472C34.0995 229.071 34.8187 226.727 36.18 224.86C36.4566 224.484 36.997 224.943 36.72 225.32C35.4494 227.056 34.7797 229.239 34.8318 231.475C34.8839 233.711 35.6542 235.853 37.0039 237.514C37.2968 237.875 36.7523 238.329 36.461 237.969H36.461Z" fill="white"/>
<path d="M28.3331 256.638C32.7467 256.964 37.1086 255.43 40.5491 252.344C40.8898 252.038 41.2997 252.641 40.9595 252.947C37.3738 256.151 32.8316 257.736 28.2394 257.386C27.8018 257.353 27.8978 256.605 28.3331 256.638Z" fill="white"/>
<path d="M52.5463 225.115C52.9731 225.937 53.5774 226.629 54.3047 227.129C55.0321 227.628 55.8598 227.919 56.7135 227.975C57.1513 228.003 57.0548 228.751 56.6198 228.724C55.6769 228.656 54.7631 228.334 53.9584 227.784C53.1537 227.234 52.4825 226.474 52.0035 225.57C51.9519 225.489 51.93 225.389 51.9423 225.291C51.9546 225.193 52.0002 225.103 52.0697 225.041C52.1418 224.981 52.2324 224.955 52.3216 224.969C52.4109 224.983 52.4916 225.035 52.5463 225.115Z" fill="white"/>
<path d="M86.9913 272.642C86.7175 272.634 86.4437 272.625 86.1663 272.622C82.4842 272.528 78.8013 272.767 75.1539 273.335C74.8713 273.374 74.5854 273.418 74.3044 273.466C65.5303 274.94 57.0788 278.208 49.3797 283.107C46.3176 285.059 43.3938 287.267 40.6335 289.711C36.8217 293.088 32.9306 297.085 28.4679 298.816C28.0042 299.002 27.5305 299.156 27.0495 299.278L6.33935 283.394C6.3086 283.332 6.27438 283.274 6.24339 283.212L5.39038 282.62C5.52481 282.483 5.66688 282.344 5.80131 282.206C5.87899 282.126 5.9613 282.05 6.03896 281.97C6.0922 281.918 6.14571 281.866 6.19107 281.816C6.20874 281.798 6.22663 281.781 6.24105 281.769C6.28642 281.718 6.33338 281.677 6.37548 281.632C7.16771 280.852 7.96626 280.078 8.77112 279.308C8.77439 279.303 8.77439 279.303 8.78228 279.301C14.9284 273.453 21.5684 268.123 28.726 264.081C28.9414 263.96 29.1598 263.833 29.3846 263.718C32.6201 261.917 35.9828 260.411 39.4391 259.217C41.3336 258.57 43.2564 258.03 45.2001 257.599C50.2242 256.496 55.3733 256.277 60.4588 256.95C70.5964 258.294 80.2341 263.221 86.5172 271.969C86.6778 272.193 86.834 272.413 86.9913 272.642Z" fill="#F2F2F2"/>
<path d="M86.763 272.898C75.035 267.263 62.0054 265.872 49.525 268.925C46.8277 269.529 44.2331 270.601 41.8367 272.102C39.5448 273.648 37.6677 275.847 36.4004 278.471C35.1744 280.891 34.1729 283.524 32.4383 285.571C31.5365 286.604 30.448 287.414 29.2444 287.947C28.0408 288.481 26.7492 288.726 25.4543 288.666C22.2243 288.611 19.2049 287.271 16.2931 285.846C13.0601 284.265 9.7246 282.565 6.11011 282.717C5.67217 282.736 5.67201 281.98 6.1093 281.962C12.3979 281.697 17.5029 286.68 23.5507 287.727C26.3728 288.215 29.3445 287.763 31.5046 285.536C33.3935 283.59 34.4284 280.875 35.6506 278.413C36.8531 275.834 38.6064 273.62 40.7572 271.966C43.077 270.335 45.6301 269.153 48.307 268.472C54.3117 266.833 60.5113 266.252 66.6786 266.75C73.7201 267.276 80.6288 269.134 87.1058 272.246C87.5066 272.439 87.1612 273.09 86.763 272.898Z" fill="white"/>
<path d="M53.4916 267.679C53.3145 265.285 53.9097 262.899 55.171 260.948C56.4323 258.996 58.2775 257.605 60.3771 257.025C60.8023 256.909 60.9846 257.637 60.5588 257.753C58.6028 258.29 56.8841 259.585 55.7129 261.405C54.5417 263.225 53.9952 265.45 54.172 267.678C54.21 268.163 53.5292 268.161 53.4916 267.679Z" fill="white"/>
<path d="M36.8765 277.153C40.224 280.363 44.5383 282.054 48.9591 281.889C49.3971 281.872 49.3974 282.628 48.96 282.644C44.3593 282.806 39.8728 281.036 36.3959 277.688C36.0647 277.368 36.5471 276.835 36.8765 277.153Z" fill="white"/>
<path d="M73.307 268.166C73.2016 269.108 73.3087 270.064 73.6186 270.949C73.9285 271.834 74.4316 272.62 75.0826 273.235C75.4172 273.55 74.9345 274.083 74.602 273.77C73.8856 273.086 73.331 272.218 72.9866 271.241C72.6422 270.264 72.5186 269.209 72.6265 268.167C72.6292 268.068 72.6659 267.973 72.729 267.903C72.7921 267.833 72.877 267.792 72.9663 267.789C73.0564 267.789 73.1427 267.829 73.2065 267.899C73.2703 267.97 73.3064 268.066 73.3069 268.166H73.307Z" fill="white"/>
<path d="M427.066 340.317C421.26 324.436 408.18 310.977 392.775 309.83C402.424 325.083 406.9 343.634 405.414 362.199C404.817 369.357 403.482 377.249 407.107 383.205C409.362 386.911 413.221 389.112 417.164 390.034C421.107 390.955 425.184 390.74 429.208 390.521L430.123 390.986C432.507 374.052 432.873 356.198 427.066 340.317Z" fill="#F2F2F2"/>
<path d="M392.71 310.182C403.397 317.96 411.605 329.279 416.168 342.531C417.196 345.364 417.815 348.36 418.002 351.407C418.099 354.382 417.476 357.331 416.198 359.949C415.05 362.416 413.619 364.792 413.032 367.525C412.75 368.93 412.739 370.384 412.999 371.793C413.259 373.203 413.785 374.535 414.541 375.703C416.358 378.668 419.026 380.732 421.699 382.649C424.666 384.778 427.778 386.937 429.651 390.373C429.877 390.789 430.446 390.374 430.219 389.958C426.962 383.981 420.406 381.986 416.294 376.952C414.376 374.604 413.083 371.599 413.571 368.372C413.998 365.551 415.472 363.099 416.653 360.612C417.933 358.079 418.635 355.237 418.698 352.333C418.651 349.285 418.137 346.268 417.178 343.412C415.111 336.942 412.141 330.873 408.376 325.428C404.11 319.187 398.914 313.802 393.013 309.505C392.647 309.24 392.347 309.918 392.71 310.182Z" fill="white"/>
<path d="M414.925 338.168C416.824 337.016 418.292 335.153 419.068 332.91C419.844 330.668 419.876 328.193 419.159 325.926C419.012 325.468 418.364 325.699 418.511 326.158C419.182 328.267 419.152 330.573 418.426 332.659C417.7 334.746 416.326 336.475 414.552 337.536C414.167 337.767 414.542 338.397 414.925 338.168Z" fill="white"/>
<path d="M416.928 358.783C412.673 357.443 409.029 354.371 406.723 350.181C406.494 349.766 405.926 350.181 406.154 350.596C408.561 354.951 412.359 358.139 416.79 359.523C417.212 359.654 417.348 358.914 416.928 358.783Z" fill="white"/>
<path d="M403.668 320.059C403.017 320.675 402.238 321.101 401.402 321.3C400.566 321.499 399.698 321.464 398.877 321.199C398.456 321.062 398.32 321.802 398.738 321.939C399.647 322.227 400.605 322.264 401.53 322.047C402.454 321.829 403.316 321.364 404.041 320.691C404.114 320.634 404.165 320.548 404.183 320.451C404.201 320.354 404.185 320.253 404.139 320.168C404.089 320.085 404.012 320.026 403.923 320.006C403.835 319.986 403.743 320.005 403.668 320.059Z" fill="white"/>
<path d="M356.836 351.971C357.097 352.065 357.357 352.159 357.62 352.26C361.116 353.545 364.512 355.144 367.775 357.04C368.03 357.182 368.286 357.33 368.536 357.48C376.354 362.142 383.324 368.374 389.092 375.859C391.385 378.84 393.47 382.011 395.329 385.343C397.897 389.945 400.351 395.162 404.031 398.457C404.411 398.805 404.811 399.127 405.227 399.421L429.541 392.188C429.589 392.141 429.639 392.1 429.687 392.052L430.67 391.813C430.584 391.634 430.493 391.45 430.408 391.27C430.359 391.166 430.304 391.063 430.255 390.959C430.221 390.89 430.186 390.821 430.159 390.757C430.147 390.734 430.136 390.711 430.126 390.694C430.099 390.63 430.067 390.573 430.041 390.515C429.531 389.485 429.013 388.458 428.488 387.432C428.487 387.426 428.487 387.426 428.48 387.422C424.462 379.621 419.822 372.123 414.304 365.646C414.138 365.452 413.971 365.251 413.794 365.059C411.292 362.155 408.581 359.482 405.687 357.069C404.099 355.752 402.451 354.526 400.751 353.395C396.353 350.482 391.57 348.354 386.577 347.091C376.622 344.574 366.053 345.619 357.487 351.514C357.268 351.665 357.054 351.814 356.836 351.971Z" fill="#F2F2F2"/>
<path d="M356.974 352.297C369.726 351.365 382.418 354.917 393.248 362.448C395.606 364.023 397.725 366.001 399.527 368.309C401.218 370.62 402.32 373.392 402.719 376.336C403.141 379.072 403.287 381.926 404.301 384.501C404.838 385.81 405.618 386.979 406.59 387.931C407.562 388.882 408.704 389.595 409.942 390.022C413 391.175 416.25 391.039 419.424 390.784C422.948 390.501 426.604 390.144 429.962 391.636C430.369 391.817 430.597 391.106 430.191 390.925C424.349 388.33 418.032 391.118 412.019 389.848C409.213 389.255 406.551 387.72 405.191 384.817C404.001 382.279 403.848 379.336 403.443 376.561C403.091 373.683 402.11 370.944 400.585 368.584C398.894 366.182 396.848 364.116 394.533 362.477C389.374 358.692 383.711 355.832 377.751 354C370.96 351.868 363.891 351.041 356.848 351.555C356.413 351.587 356.541 352.329 356.974 352.297Z" fill="white"/>
<path d="M389.89 359.795C390.782 357.607 390.943 355.137 390.346 352.829C389.749 350.52 388.432 348.522 386.631 347.191C386.266 346.924 385.873 347.541 386.239 347.809C387.919 349.045 389.145 350.906 389.697 353.057C390.249 355.209 390.091 357.508 389.249 359.54C389.067 359.982 389.709 360.235 389.89 359.795H389.89Z" fill="white"/>
<path d="M402.67 374.917C398.545 376.691 393.97 376.674 389.856 374.869C389.449 374.69 389.22 375.402 389.627 375.581C393.911 377.449 398.672 377.456 402.961 375.6C403.369 375.423 403.076 374.741 402.67 374.917Z" fill="white"/>
<path d="M371.08 352.861C370.894 353.787 370.503 354.648 369.943 355.366C369.384 356.083 368.672 356.636 367.873 356.973C367.462 357.144 367.756 357.826 368.163 357.656C369.045 357.279 369.83 356.668 370.45 355.876C371.07 355.085 371.506 354.137 371.72 353.115C371.748 353.021 371.742 352.918 371.704 352.829C371.665 352.739 371.598 352.669 371.515 352.632C371.43 352.599 371.336 352.604 371.255 352.647C371.174 352.69 371.111 352.767 371.08 352.861V352.861Z" fill="white"/>
<path d="M334.68 289.237C337.84 289.237 340.401 286.394 340.401 282.887C340.401 279.38 337.84 276.537 334.68 276.537C331.521 276.537 328.96 279.38 328.96 282.887C328.96 286.394 331.521 289.237 334.68 289.237Z" fill="#E6E6E6"/>
<path d="M228.236 110.097C231.395 110.097 233.956 107.254 233.956 103.747C233.956 100.24 231.395 97.3972 228.236 97.3972C225.076 97.3972 222.515 100.24 222.515 103.747C222.515 107.254 225.076 110.097 228.236 110.097Z" fill="#E6E6E6"/>
<path d="M108.36 347.337C108.36 348.953 108.408 350.57 108.51 352.173C108.618 354.089 108.804 355.991 109.055 357.88C109.901 364.242 111.518 370.447 113.861 376.327C113.981 376.619 114.101 376.912 114.221 377.205L114.401 377.644C114.461 377.79 114.526 377.937 114.586 378.076C114.67 378.269 114.748 378.455 114.832 378.642C114.934 378.875 115.036 379.107 115.144 379.34C115.156 379.367 115.168 379.4 115.186 379.433C115.276 379.633 115.359 379.826 115.455 380.025C115.473 380.069 115.493 380.111 115.515 380.152C115.617 380.378 115.725 380.611 115.833 380.837C115.953 381.076 116.067 381.323 116.186 381.562C116.474 382.154 116.774 382.739 117.079 383.325C117.169 383.498 117.259 383.671 117.355 383.844C117.439 384.003 117.523 384.163 117.613 384.323C117.673 384.429 117.732 384.542 117.792 384.649C117.888 384.828 117.984 385.001 118.086 385.181C118.308 385.573 118.535 385.966 118.757 386.358H118.763C118.865 386.538 118.973 386.717 119.081 386.89V386.897C119.398 387.429 119.728 387.961 120.058 388.487C120.058 388.487 120.059 388.487 120.06 388.487C120.061 388.488 120.061 388.488 120.062 388.489C120.062 388.489 120.063 388.49 120.063 388.491C120.063 388.492 120.064 388.493 120.064 388.493C120.327 388.919 120.603 389.332 120.873 389.744V389.751C121.052 390.01 121.226 390.276 121.406 390.536C121.55 390.748 121.7 390.968 121.849 391.181C121.879 391.227 121.915 391.267 121.945 391.314V391.321C121.987 391.38 122.029 391.434 122.071 391.494C122.706 392.398 123.361 393.283 124.037 394.148L124.144 394.287C124.18 394.334 124.222 394.381 124.258 394.434C124.318 394.507 124.372 394.58 124.432 394.653C124.486 394.726 124.546 394.8 124.606 394.873C128.125 399.274 132.116 403.181 136.489 406.507C137.07 406.953 137.664 407.385 138.257 407.805C138.407 407.911 138.556 408.017 138.706 408.117C138.748 408.15 138.796 408.184 138.838 408.217C138.922 408.27 139 408.323 139.084 408.383C139.162 408.436 139.24 408.49 139.324 408.543C139.641 408.762 139.965 408.975 140.288 409.188C140.366 409.241 140.45 409.295 140.534 409.348C140.612 409.394 140.696 409.448 140.78 409.501C140.78 409.507 140.78 409.507 140.786 409.507H140.792V409.514H140.798C141.199 409.774 141.607 410.026 142.02 410.272C142.242 410.405 142.47 410.545 142.697 410.672C143.213 410.984 143.734 411.284 144.255 411.57C144.441 411.669 144.633 411.769 144.819 411.876C144.974 411.955 145.13 412.042 145.286 412.122C145.334 412.148 145.376 412.168 145.418 412.195C145.55 412.261 145.676 412.328 145.807 412.394C145.951 412.468 146.095 412.541 146.233 412.614C146.395 412.694 146.551 412.774 146.712 412.847C147.312 413.146 147.917 413.432 148.522 413.705C150.691 414.692 152.908 415.545 155.162 416.259C155.264 416.293 155.372 416.326 155.479 416.359C156.444 416.658 157.415 416.931 158.392 417.177C160.1 417.616 161.823 417.976 163.563 418.255H163.575C163.785 418.288 163.989 418.321 164.199 418.355C164.217 418.355 164.234 418.361 164.258 418.361C164.258 418.368 164.258 418.368 164.264 418.361C164.492 418.395 164.726 418.428 164.954 418.461C164.969 418.466 164.985 418.469 165.002 418.468C165.217 418.501 165.439 418.528 165.655 418.554C165.888 418.581 166.122 418.608 166.356 418.634C166.536 418.654 166.715 418.674 166.895 418.694C166.911 418.7 166.927 418.702 166.943 418.701C167.105 418.714 167.267 418.734 167.428 418.747H167.452C167.59 418.761 167.734 418.774 167.872 418.787C169.544 418.934 171.222 419 172.924 419C174.763 419 176.591 418.92 178.395 418.747H178.413C178.802 418.707 179.186 418.667 179.569 418.628C179.671 418.614 179.767 418.608 179.869 418.594C179.887 418.594 179.911 418.588 179.929 418.588C179.959 418.581 179.989 418.581 180.025 418.574C180.041 418.575 180.057 418.573 180.073 418.568C180.205 418.554 180.336 418.534 180.474 418.521L180.924 418.461C181.073 418.441 181.223 418.415 181.373 418.395C181.409 418.388 181.439 418.388 181.475 418.381C181.583 418.368 181.691 418.348 181.799 418.328C181.853 418.322 181.906 418.315 181.954 418.308C182.062 418.288 182.164 418.275 182.272 418.255H182.278C185.566 417.729 188.812 416.918 191.986 415.827C192.154 415.767 192.321 415.714 192.489 415.654C192.495 415.654 192.501 415.647 192.507 415.647C192.555 415.627 192.609 415.614 192.657 415.594C193.106 415.434 193.55 415.268 193.993 415.095C194.605 414.869 195.21 414.623 195.815 414.37C195.977 414.297 196.139 414.23 196.3 414.157C196.63 414.018 196.954 413.871 197.277 413.725C197.829 413.479 198.38 413.219 198.925 412.953C199.435 412.7 199.938 412.448 200.441 412.182C200.453 412.175 200.471 412.175 200.483 412.162C200.597 412.102 200.711 412.042 200.819 411.982H200.825C203.584 410.512 206.246 408.825 208.789 406.933C209.604 406.328 210.407 405.702 211.198 405.057C211.833 404.532 212.456 404 213.08 403.454C216.154 400.739 219 397.72 221.583 394.434V394.427C221.769 394.201 221.942 393.968 222.122 393.735C222.152 393.702 222.176 393.669 222.2 393.642C222.314 393.489 222.422 393.343 222.536 393.197V393.19C222.686 392.997 222.835 392.797 222.979 392.598C223.015 392.551 223.045 392.511 223.075 392.471V392.465C223.195 392.305 223.309 392.145 223.429 391.979C223.489 391.899 223.542 391.82 223.602 391.74V391.733C223.956 391.241 224.298 390.749 224.639 390.243C224.729 390.11 224.819 389.97 224.915 389.831C225.346 389.185 225.766 388.527 226.173 387.868V387.862C226.329 387.615 226.479 387.363 226.635 387.116C226.784 386.864 226.934 386.611 227.084 386.358C227.234 386.092 227.39 385.833 227.539 385.567L227.557 385.527C227.707 385.274 227.857 385.008 228.001 384.748C228.115 384.535 228.229 384.329 228.343 384.123C228.414 383.983 228.492 383.844 228.564 383.697C228.592 383.652 228.618 383.606 228.642 383.558C228.81 383.232 228.978 382.906 229.145 382.58C229.343 382.201 229.535 381.815 229.727 381.429C229.799 381.269 229.877 381.11 229.955 380.95C229.984 380.897 230.008 380.844 230.032 380.79C230.122 380.604 230.212 380.411 230.296 380.218C230.386 380.032 230.476 379.839 230.566 379.646C230.65 379.46 230.739 379.267 230.823 379.074C230.889 378.928 230.949 378.781 231.015 378.635C231.02 378.623 231.026 378.612 231.033 378.602C231.063 378.529 231.093 378.462 231.117 378.396C231.124 378.386 231.13 378.374 231.135 378.362C231.201 378.216 231.261 378.063 231.327 377.917C231.411 377.724 231.489 377.524 231.572 377.331C231.626 377.198 231.686 377.059 231.74 376.919C231.818 376.726 231.902 376.533 231.974 376.333C232.058 376.134 232.136 375.934 232.214 375.728C232.236 375.678 232.256 375.627 232.274 375.575C232.316 375.482 232.346 375.389 232.381 375.296C232.477 375.05 232.573 374.797 232.663 374.551C232.771 374.271 232.873 373.985 232.969 373.706C233.065 373.446 233.155 373.18 233.244 372.914L233.28 372.821C234.677 368.739 235.736 364.524 236.444 360.229V360.222C236.844 357.77 237.13 355.296 237.301 352.812C237.307 352.672 237.319 352.539 237.325 352.406C237.433 350.723 237.481 349.033 237.481 347.337C237.481 346.585 237.469 345.84 237.451 345.095C237.033 329.514 232.028 314.513 223.201 302.389C223.009 302.123 222.817 301.856 222.62 301.59C222.422 301.324 222.218 301.065 222.02 300.805C215.451 292.266 207.166 285.559 197.834 281.225C188.501 276.892 178.381 275.053 168.291 275.858C158.201 276.663 148.422 280.088 139.743 285.857C131.064 291.627 123.728 299.58 118.326 309.074C118.032 309.593 117.739 310.118 117.457 310.644C117.169 311.176 116.894 311.708 116.618 312.247C111.189 322.959 108.345 335.046 108.36 347.337Z" fill="#F2F2F2"/>
<path d="M170.357 300.462C180.974 303.486 191.853 305.229 202.806 305.661C204.462 305.761 206.122 305.748 207.777 305.623C211.414 305.284 214.529 304.015 217.999 303.321C219.667 302.989 221.525 302.746 223.204 302.387C222.816 301.852 222.421 301.324 222.019 300.803C218.398 301.143 214.721 302.254 211.057 302.771C204.828 303.65 197.849 302.669 193.127 300.249C190.836 299.075 189.081 297.61 186.798 296.43C186.488 296.253 186.151 296.139 185.805 296.092C185.147 296.07 184.496 296.258 183.931 296.632C180.101 298.778 174.54 300.523 169.379 299.563C168.994 299.897 169.725 300.278 170.357 300.462Z" fill="white"/>
<path d="M147.517 308.015C147.47 308.006 147.423 307.998 147.375 307.989C147.574 307.853 147.76 307.697 147.933 307.523L147.517 308.015Z" fill="white"/>
<path d="M116.619 312.25C118.775 312.441 120.942 312.584 123.12 312.677C124.776 312.776 126.437 312.764 128.092 312.64C131.728 312.298 134.844 311.031 138.313 310.338C141.493 309.703 145.357 309.398 147.376 307.989C142.158 306.987 136.752 309.028 131.371 309.787C127.019 310.381 122.607 310.14 118.329 309.072C117.733 310.113 117.163 311.172 116.619 312.25Z" fill="white"/>
<path d="M142.697 410.672C143.213 410.984 143.734 411.284 144.255 411.57C144.441 411.669 144.633 411.769 144.819 411.876C144.974 411.955 145.13 412.042 145.286 412.122C145.334 412.148 145.376 412.168 145.418 412.195C145.55 412.261 145.676 412.328 145.807 412.395C145.951 412.468 146.095 412.541 146.233 412.614C146.395 412.694 146.55 412.774 146.712 412.847C147.312 413.146 147.917 413.432 148.522 413.705C150.691 414.692 152.908 415.545 155.162 416.259C155.264 416.293 155.371 416.326 155.479 416.359C156.444 416.658 157.415 416.931 158.392 417.177C160.1 417.616 161.823 417.976 163.563 418.255H163.575C163.785 418.288 163.989 418.322 164.198 418.355C164.216 418.355 164.234 418.361 164.258 418.361C164.258 418.368 164.258 418.368 164.264 418.361C164.492 418.395 164.726 418.428 164.954 418.461C164.969 418.466 164.985 418.469 165.001 418.468C165.217 418.501 165.439 418.528 165.655 418.554C165.888 418.581 166.122 418.608 166.356 418.634C166.536 418.654 166.715 418.674 166.895 418.694C166.91 418.7 166.927 418.702 166.943 418.701C167.105 418.714 167.267 418.734 167.428 418.747H167.452C167.59 418.761 167.734 418.774 167.872 418.787C169.544 418.934 171.222 419 172.924 419C174.763 419 176.591 418.92 178.395 418.747H178.413C178.802 418.707 179.186 418.667 179.569 418.628C179.671 418.614 179.767 418.608 179.869 418.594C179.887 418.594 179.911 418.588 179.929 418.588C179.959 418.581 179.989 418.581 180.025 418.574C180.041 418.575 180.057 418.573 180.073 418.568C180.204 418.554 180.336 418.534 180.474 418.521L180.924 418.461C181.073 418.441 181.223 418.415 181.373 418.395C181.409 418.388 181.439 418.388 181.475 418.381C181.583 418.368 181.691 418.348 181.799 418.328C181.852 418.322 181.906 418.315 181.954 418.308C182.062 418.288 182.164 418.275 182.272 418.255H182.278C185.566 417.73 188.812 416.918 191.986 415.827C192.154 415.767 192.321 415.714 192.489 415.654C191.715 411.648 190.122 407.894 187.833 404.68C185.544 401.467 182.62 398.881 179.288 397.121C180.112 396.25 180.682 395.123 180.924 393.888C181.079 393.092 181.092 392.27 180.96 391.469C180.828 390.667 180.555 389.902 180.157 389.219C179.379 387.893 178.159 386.965 176.765 386.638L167.884 384.575C166.454 384.266 164.972 384.596 163.76 385.492C162.549 386.389 161.705 387.781 161.412 389.365C161.321 389.85 161.281 390.346 161.292 390.842C152.741 397.161 146.586 403.713 142.697 410.672Z" fill="#6C63FF"/>
<path d="M168.92 380.682C179.138 380.682 187.422 371.486 187.422 360.143C187.422 348.8 179.138 339.604 168.92 339.604C158.701 339.604 150.418 348.8 150.418 360.143C150.418 371.486 158.701 380.682 168.92 380.682Z" fill="#FFB8B8"/>
<path d="M157.387 377.851C155.414 376.354 153.399 373.479 152.054 371.325C150.272 368.492 149.045 365.276 148.454 361.884C147.863 358.492 147.921 355 148.624 351.634C148.848 350.288 149.398 349.036 150.216 348.012C151.088 347.054 152.511 346.6 153.575 347.277C153.284 346.415 153.156 345.495 153.199 344.575C153.241 343.655 153.453 342.755 153.821 341.929C154.569 340.281 155.652 338.849 156.985 337.747C159.534 335.568 162.567 334.195 165.762 333.775C168.957 333.355 172.195 333.904 175.132 335.362C176.288 335.956 174.39 331.365 175.599 331.807C176.801 332.324 178.137 332.298 179.322 331.735C180.46 331.099 184.231 334.876 183.794 333.548C184.658 333.983 185.408 334.654 185.975 335.497C186.542 336.341 186.908 337.33 187.037 338.373C187.167 339.416 187.057 340.478 186.718 341.461C186.378 342.444 185.82 343.315 185.096 343.994C184.141 344.889 182.949 345.404 181.903 346.164C180.071 347.594 178.775 349.72 178.258 352.139C177.741 354.559 178.041 357.104 179.099 359.295C177.999 358.511 176.792 357.929 175.525 357.571C174.889 357.399 174.225 357.398 173.589 357.568C172.953 357.737 172.362 358.073 171.867 358.548C171.452 359.074 171.14 359.689 170.947 360.354C170.755 361.019 170.687 361.721 170.748 362.417C170.789 363.81 171.088 365.184 171.121 366.578C171.22 370.668 173.193 378.445 170.336 380.619C168.082 382.335 160.081 379.893 157.387 377.851Z" fill="#2F2E41"/>
<path d="M183.168 254.082C182.778 254.081 182.393 253.995 182.033 253.827C181.497 253.588 181.038 253.175 180.717 252.641C180.396 252.108 180.227 251.479 180.233 250.837V247.586C180.233 246.904 179.988 246.25 179.554 245.768C179.12 245.286 178.531 245.015 177.916 245.014C177.143 245.013 176.402 244.672 175.855 244.065C175.308 243.458 175.001 242.635 175 241.777V197.237C175.001 196.379 175.308 195.556 175.855 194.949C176.402 194.342 177.143 194.001 177.916 194H310.846C311.619 194.001 312.361 194.342 312.907 194.949C313.454 195.556 313.762 196.379 313.763 197.237V241.777C313.762 242.635 313.454 243.458 312.907 244.065C312.361 244.672 311.619 245.013 310.846 245.014H193.479C193.175 245.013 192.873 245.079 192.592 245.208C192.311 245.338 192.056 245.528 191.841 245.767L185.212 253.126C184.945 253.427 184.627 253.667 184.276 253.831C183.926 253.996 183.549 254.081 183.168 254.082Z" fill="white"/>
<path d="M181.642 258.006C181.173 258.005 180.709 257.902 180.277 257.701C179.631 257.412 179.078 256.914 178.691 256.27C178.303 255.627 178.1 254.869 178.108 254.096V250.845C178.107 250.34 177.926 249.855 177.604 249.497C177.282 249.14 176.845 248.939 176.39 248.938C175.458 248.937 174.564 248.525 173.905 247.793C173.246 247.062 172.875 246.07 172.874 245.035V200.496C172.875 199.462 173.246 198.47 173.905 197.738C174.564 197.006 175.458 196.595 176.39 196.594H309.32C310.252 196.595 311.145 197.006 311.804 197.738C312.464 198.47 312.834 199.461 312.835 200.496V245.035C312.834 246.07 312.464 247.062 311.805 247.793C311.146 248.525 310.252 248.937 309.32 248.938H191.953C191.727 248.937 191.504 248.986 191.295 249.082C191.086 249.178 190.897 249.319 190.738 249.497L184.109 256.855C183.787 257.218 183.403 257.507 182.979 257.705C182.556 257.903 182.101 258.005 181.642 258.006ZM176.39 197.924C175.775 197.925 175.186 198.196 174.752 198.678C174.318 199.16 174.073 199.814 174.073 200.496V245.035C174.073 245.717 174.318 246.371 174.752 246.853C175.186 247.336 175.776 247.607 176.39 247.608C177.163 247.609 177.904 247.95 178.451 248.557C178.998 249.164 179.305 249.987 179.306 250.845V254.096C179.306 254.605 179.442 255.102 179.697 255.525C179.951 255.948 180.313 256.277 180.737 256.472C181.16 256.666 181.626 256.717 182.075 256.618C182.525 256.519 182.937 256.274 183.261 255.914L189.891 248.556C190.161 248.254 190.482 248.015 190.836 247.852C191.19 247.69 191.57 247.606 191.953 247.608H309.32C309.934 247.607 310.523 247.336 310.958 246.853C311.392 246.371 311.636 245.717 311.637 245.035V200.496C311.636 199.814 311.392 199.16 310.957 198.678C310.523 198.196 309.934 197.925 309.32 197.924L176.39 197.924Z" fill="#3F3D56"/>
<path d="M297.897 217.423H190.104C189.693 217.423 189.298 217.241 189.006 216.918C188.715 216.595 188.552 216.157 188.552 215.7C188.552 215.242 188.715 214.804 189.006 214.481C189.298 214.158 189.693 213.976 190.104 213.976H297.897C298.309 213.976 298.704 214.158 298.995 214.481C299.286 214.804 299.449 215.242 299.449 215.7C299.449 216.157 299.286 216.595 298.995 216.918C298.704 217.241 298.309 217.423 297.897 217.423Z" fill="#6C63FF"/>
<path d="M297.699 224.745H190.104C189.693 224.745 189.298 224.563 189.006 224.24C188.715 223.917 188.552 223.478 188.552 223.021C188.552 222.564 188.715 222.126 189.006 221.803C189.298 221.48 189.693 221.298 190.104 221.298H297.699C298.111 221.298 298.505 221.48 298.797 221.803C299.088 222.126 299.251 222.564 299.251 223.021C299.251 223.478 299.088 223.917 298.797 224.24C298.505 224.563 298.111 224.745 297.699 224.745Z" fill="#E6E6E6"/>
<path d="M297.592 232.066H190.104C189.693 232.066 189.298 231.885 189.006 231.562C188.715 231.238 188.552 230.8 188.552 230.343C188.552 229.886 188.715 229.447 189.006 229.124C189.298 228.801 189.693 228.62 190.104 228.62H297.592C298.003 228.62 298.398 228.801 298.689 229.124C298.981 229.447 299.144 229.886 299.144 230.343C299.144 230.8 298.981 231.238 298.689 231.562C298.398 231.885 298.003 232.066 297.592 232.066Z" fill="#E6E6E6"/>
<path d="M467.648 190.347C467.648 191.964 467.6 193.58 467.498 195.183C467.39 197.099 467.204 199.002 466.953 200.891C466.107 207.252 464.49 213.457 462.147 219.337C462.027 219.63 461.907 219.922 461.787 220.215L461.607 220.654C461.547 220.8 461.481 220.947 461.422 221.087C461.338 221.279 461.26 221.466 461.176 221.652C461.074 221.885 460.972 222.118 460.864 222.35C460.852 222.377 460.84 222.41 460.822 222.444C460.732 222.643 460.649 222.836 460.553 223.036C460.535 223.079 460.515 223.121 460.493 223.162C460.391 223.388 460.283 223.621 460.175 223.847C460.055 224.087 459.941 224.333 459.822 224.572C459.534 225.164 459.234 225.75 458.929 226.335C458.839 226.508 458.749 226.681 458.653 226.854C458.569 227.014 458.485 227.173 458.395 227.333C458.335 227.439 458.276 227.552 458.216 227.659C458.12 227.838 458.024 228.011 457.922 228.191C457.7 228.583 457.472 228.976 457.251 229.368H457.245C457.143 229.548 457.035 229.728 456.927 229.901V229.907C456.61 230.439 456.28 230.972 455.95 231.497C455.95 231.497 455.949 231.497 455.948 231.498C455.947 231.498 455.947 231.498 455.946 231.499C455.946 231.5 455.945 231.5 455.945 231.501C455.945 231.502 455.944 231.503 455.944 231.504C455.681 231.929 455.405 232.342 455.135 232.754V232.761C454.956 233.02 454.782 233.286 454.602 233.546C454.458 233.759 454.308 233.978 454.159 234.191C454.129 234.238 454.093 234.278 454.063 234.324V234.331C454.021 234.391 453.979 234.444 453.937 234.504C453.302 235.408 452.647 236.293 451.971 237.158L451.863 237.298C451.828 237.344 451.786 237.391 451.75 237.444C451.69 237.517 451.636 237.59 451.576 237.664C451.522 237.737 451.462 237.81 451.402 237.883C447.883 242.284 443.892 246.191 439.519 249.518C438.938 249.963 438.344 250.396 437.751 250.815C437.601 250.921 437.451 251.028 437.302 251.127C437.26 251.161 437.212 251.194 437.17 251.227C437.086 251.28 437.008 251.334 436.924 251.394C436.846 251.447 436.768 251.5 436.684 251.553C436.367 251.773 436.043 251.986 435.72 252.198C435.642 252.252 435.558 252.305 435.474 252.358C435.396 252.405 435.312 252.458 435.228 252.511C435.228 252.518 435.228 252.518 435.222 252.518H435.216V252.524H435.21C434.809 252.784 434.401 253.037 433.988 253.283C433.766 253.416 433.538 253.555 433.311 253.682C432.795 253.994 432.274 254.294 431.753 254.58C431.567 254.68 431.375 254.779 431.189 254.886C431.033 254.966 430.878 255.052 430.722 255.132C430.674 255.159 430.632 255.179 430.59 255.205C430.458 255.272 430.332 255.338 430.201 255.405C430.057 255.478 429.913 255.551 429.775 255.624C429.613 255.704 429.457 255.784 429.296 255.857C428.696 256.156 428.091 256.442 427.486 256.715C425.317 257.702 423.1 258.555 420.846 259.27C420.744 259.303 420.636 259.336 420.529 259.369C419.564 259.669 418.593 259.941 417.616 260.188C415.908 260.627 414.184 260.986 412.445 261.265H412.433C412.223 261.299 412.019 261.332 411.809 261.365C411.791 261.365 411.773 261.372 411.75 261.372C411.75 261.378 411.749 261.378 411.743 261.372C411.516 261.405 411.282 261.438 411.054 261.471C411.039 261.477 411.023 261.479 411.006 261.478C410.791 261.511 410.569 261.538 410.353 261.565C410.12 261.591 409.886 261.618 409.652 261.644C409.472 261.664 409.293 261.684 409.113 261.704C409.097 261.71 409.081 261.712 409.065 261.711C408.903 261.724 408.741 261.744 408.579 261.758H408.555C408.418 261.771 408.274 261.784 408.136 261.797C406.464 261.944 404.786 262.01 403.084 262.01C401.245 262.01 399.417 261.93 397.613 261.758H397.595C397.206 261.718 396.822 261.678 396.439 261.638C396.337 261.624 396.241 261.618 396.139 261.604C396.121 261.604 396.097 261.598 396.079 261.598C396.049 261.591 396.019 261.591 395.983 261.585C395.967 261.585 395.951 261.583 395.935 261.578C395.803 261.565 395.672 261.545 395.534 261.531L395.084 261.471C394.934 261.452 394.785 261.425 394.635 261.405C394.599 261.398 394.569 261.398 394.533 261.392C394.425 261.378 394.317 261.358 394.209 261.338C394.155 261.332 394.102 261.325 394.054 261.318C393.946 261.299 393.844 261.285 393.736 261.265H393.73C390.442 260.74 387.196 259.928 384.022 258.837C383.854 258.777 383.687 258.724 383.519 258.664C383.513 258.664 383.507 258.658 383.501 258.658C383.453 258.638 383.399 258.624 383.351 258.604C382.901 258.445 382.458 258.278 382.015 258.105C381.403 257.879 380.798 257.633 380.193 257.38C380.031 257.307 379.869 257.241 379.707 257.168C379.378 257.028 379.054 256.882 378.731 256.735C378.179 256.489 377.628 256.23 377.083 255.964C376.573 255.711 376.07 255.458 375.567 255.192C375.555 255.185 375.537 255.185 375.525 255.172C375.411 255.112 375.297 255.052 375.189 254.992H375.183C372.423 253.522 369.762 251.835 367.219 249.943C366.404 249.338 365.601 248.713 364.81 248.067C364.175 247.542 363.552 247.01 362.928 246.464C359.854 243.75 357.008 240.73 354.425 237.444V237.437C354.239 237.211 354.065 236.978 353.886 236.746C353.856 236.712 353.832 236.679 353.808 236.652C353.694 236.499 353.586 236.353 353.472 236.207V236.2C353.322 236.007 353.173 235.808 353.029 235.608C352.993 235.562 352.963 235.522 352.933 235.482V235.475C352.813 235.315 352.699 235.156 352.579 234.989C352.519 234.91 352.465 234.83 352.406 234.75V234.743C352.052 234.251 351.71 233.759 351.369 233.253C351.279 233.12 351.189 232.981 351.093 232.841C350.662 232.196 350.242 231.537 349.835 230.878V230.872C349.679 230.626 349.529 230.373 349.373 230.127C349.223 229.874 349.074 229.621 348.924 229.368C348.774 229.102 348.618 228.843 348.468 228.577L348.45 228.537C348.301 228.284 348.151 228.018 348.007 227.759C347.893 227.546 347.779 227.34 347.665 227.133C347.594 226.994 347.516 226.854 347.444 226.708C347.416 226.663 347.39 226.616 347.366 226.568C347.198 226.242 347.03 225.916 346.862 225.59C346.665 225.211 346.473 224.825 346.281 224.439C346.209 224.28 346.131 224.12 346.053 223.96C346.024 223.907 346 223.854 345.976 223.801C345.886 223.614 345.796 223.422 345.712 223.229C345.622 223.042 345.532 222.849 345.442 222.656C345.358 222.47 345.268 222.277 345.185 222.084C345.119 221.938 345.059 221.792 344.993 221.645C344.988 221.633 344.982 221.622 344.975 221.612C344.945 221.539 344.915 221.472 344.891 221.406C344.884 221.396 344.878 221.385 344.873 221.373C344.807 221.226 344.747 221.073 344.681 220.927C344.597 220.734 344.519 220.534 344.435 220.342C344.382 220.208 344.322 220.069 344.268 219.929C344.19 219.736 344.106 219.543 344.034 219.344C343.95 219.144 343.872 218.945 343.794 218.738C343.772 218.689 343.752 218.638 343.734 218.585C343.692 218.492 343.662 218.399 343.626 218.306C343.531 218.06 343.435 217.807 343.345 217.561C343.237 217.282 343.135 216.996 343.039 216.716C342.943 216.457 342.853 216.191 342.764 215.925L342.728 215.831C341.331 211.749 340.272 207.534 339.564 203.239V203.232C339.164 200.78 338.878 198.307 338.707 195.822C338.701 195.682 338.689 195.549 338.683 195.416C338.575 193.733 338.527 192.043 338.527 190.347C338.527 189.595 338.539 188.85 338.557 188.105C338.975 172.524 343.98 157.523 352.807 145.399C352.999 145.133 353.191 144.867 353.388 144.601C353.586 144.335 353.79 144.075 353.988 143.816C360.557 135.276 368.842 128.569 378.174 124.236C387.507 119.902 397.627 118.064 407.717 118.868C417.807 119.673 427.586 123.098 436.265 128.868C444.944 134.637 452.28 142.59 457.682 152.084C457.976 152.603 458.269 153.129 458.551 153.654C458.839 154.186 459.114 154.719 459.39 155.257C464.819 165.969 467.663 178.056 467.648 190.347Z" fill="#F2F2F2"/>
<path d="M405.65 143.472C395.034 146.496 384.155 148.239 373.202 148.671C371.546 148.771 369.885 148.759 368.23 148.633C364.594 148.294 361.478 147.025 358.009 146.332C356.341 145.999 354.483 145.756 352.804 145.397C353.192 144.863 353.587 144.335 353.989 143.814C357.61 144.153 361.287 145.265 364.951 145.781C371.18 146.66 378.159 145.679 382.881 143.259C385.172 142.085 386.927 140.62 389.21 139.44C389.52 139.263 389.856 139.149 390.203 139.103C390.861 139.081 391.511 139.268 392.077 139.642C395.907 141.789 401.468 143.533 406.629 142.573C407.014 142.907 406.283 143.288 405.65 143.472Z" fill="white"/>
<path d="M428.491 151.026C428.538 151.016 428.585 151.009 428.632 150.999C428.434 150.863 428.247 150.707 428.074 150.533L428.491 151.026Z" fill="white"/>
<path d="M459.389 155.26C457.233 155.451 455.066 155.594 452.888 155.687C451.231 155.787 449.571 155.774 447.916 155.65C444.279 155.308 441.164 154.041 437.695 153.348C434.515 152.713 430.651 152.408 428.632 151C433.85 149.997 439.256 152.038 444.637 152.797C448.989 153.392 453.401 153.15 457.679 152.083C458.275 153.123 458.845 154.182 459.389 155.26Z" fill="white"/>
<path d="M395.806 221.706C406.515 221.706 415.197 211.854 415.197 199.701C415.197 187.548 406.515 177.696 395.806 177.696C385.097 177.696 376.415 187.548 376.415 199.701C376.415 211.854 385.097 221.706 395.806 221.706Z" fill="#FFB6B6"/>
<path d="M433.311 253.682C432.795 253.995 432.274 254.294 431.753 254.58C431.567 254.68 431.375 254.779 431.189 254.886C431.034 254.966 430.878 255.052 430.722 255.132C430.674 255.159 430.632 255.179 430.59 255.205C430.458 255.272 430.332 255.338 430.201 255.405C430.057 255.478 429.913 255.551 429.775 255.624C429.613 255.704 429.458 255.784 429.296 255.857C428.696 256.156 428.091 256.442 427.486 256.715C425.317 257.702 423.1 258.555 420.846 259.27C420.744 259.303 420.637 259.336 420.529 259.369C419.564 259.669 418.593 259.942 417.616 260.188C415.908 260.627 414.185 260.986 412.445 261.265H412.433C412.223 261.299 412.019 261.332 411.81 261.365C411.792 261.365 411.774 261.372 411.75 261.372C411.75 261.378 411.75 261.378 411.744 261.372C411.516 261.405 411.282 261.438 411.054 261.472C411.039 261.477 411.023 261.479 411.007 261.478C410.791 261.511 410.569 261.538 410.353 261.565C410.12 261.591 409.886 261.618 409.652 261.644C409.472 261.664 409.293 261.684 409.113 261.704C409.097 261.71 409.081 261.712 409.065 261.711C408.903 261.724 408.741 261.744 408.58 261.758H408.556C408.418 261.771 408.274 261.784 408.136 261.797C406.464 261.944 404.786 262.01 403.084 262.01C401.245 262.01 399.417 261.93 397.613 261.758H397.595C397.206 261.718 396.822 261.678 396.439 261.638C396.337 261.625 396.241 261.618 396.139 261.605C396.121 261.605 396.097 261.598 396.079 261.598C396.049 261.591 396.019 261.591 395.983 261.585C395.967 261.585 395.951 261.583 395.935 261.578C395.803 261.565 395.672 261.545 395.534 261.531L395.084 261.472C394.935 261.452 394.785 261.425 394.635 261.405C394.599 261.398 394.569 261.398 394.533 261.392C394.425 261.378 394.317 261.358 394.209 261.338C394.156 261.332 394.102 261.325 394.054 261.319C393.946 261.299 393.844 261.285 393.736 261.265H393.73C390.442 260.74 387.196 259.928 384.022 258.837C383.854 258.777 383.687 258.724 383.519 258.664C384.293 254.659 385.885 250.904 388.175 247.691C390.464 244.477 393.387 241.891 396.72 240.132C395.896 239.26 395.326 238.134 395.084 236.899C394.929 236.103 394.916 235.28 395.048 234.479C395.18 233.677 395.453 232.913 395.851 232.229C396.629 230.903 397.849 229.975 399.243 229.648L408.124 227.586C409.554 227.276 411.036 227.606 412.248 228.503C413.459 229.4 414.303 230.791 414.596 232.375C414.687 232.861 414.727 233.356 414.716 233.852C423.267 240.171 429.422 246.724 433.311 253.682Z" fill="#6C63FF"/>
<path d="M447.694 190.158C444.398 185.891 442.831 180.23 440.196 175.385C437.561 170.54 432.976 166.203 428.132 167.331C424.793 168.108 422.212 171.379 420.906 175.026C419.599 178.672 419.354 182.694 419.125 186.634C419.206 178.537 414.401 170.688 407.782 168.105C401.163 165.521 393.241 168.403 389.082 174.908C387.267 173.04 384.898 171.977 382.424 171.919C379.949 171.862 377.542 172.814 375.658 174.595C371.938 178.286 371.114 185.311 373.85 190.019C376.586 194.727 382.512 196.481 386.86 193.87L388.397 195.44C387.532 198.799 389.21 202.768 392.03 204.032C394.318 205.058 397.547 204.887 398.403 207.551C399.001 209.413 397.883 211.401 396.694 212.831C395.505 214.262 394.093 215.739 393.95 217.719C393.734 220.706 396.515 222.798 399.043 223.429C405.138 224.948 411.901 221.815 415.414 215.844C415.482 215.729 415.556 215.613 415.635 215.498C417.606 212.7 419.042 209.485 419.856 206.05C420.671 202.615 420.845 199.032 420.369 195.519C420.172 194.139 420.371 193.113 421.228 192.786C424.933 191.373 435.313 194.338 438.455 197.018C441.596 199.698 444.112 203.244 447.138 206.097C450.164 208.949 454.02 211.15 457.862 210.373C460.939 209.751 463.557 207.271 465.318 204.28C467.079 201.288 468.092 197.802 469 194.336C462.195 198.7 452.882 196.873 447.694 190.158Z" fill="#2F2E41"/>
<path d="M49.6334 145.778C49.6334 147.394 49.6813 149.011 49.7832 150.614C49.891 152.53 50.0768 154.432 50.3285 156.322C51.1743 162.683 52.791 168.888 55.1345 174.768C55.2543 175.061 55.3742 175.353 55.4941 175.646L55.6738 176.085C55.7337 176.231 55.7997 176.378 55.8596 176.517C55.9435 176.71 56.0214 176.897 56.1053 177.083C56.2072 177.316 56.309 177.548 56.4169 177.781C56.4289 177.808 56.4409 177.841 56.4588 177.874C56.5487 178.074 56.6326 178.267 56.7285 178.466C56.7461 178.51 56.7661 178.552 56.7884 178.593C56.8903 178.819 56.9982 179.052 57.106 179.278C57.2259 179.518 57.3397 179.764 57.4596 180.003C57.7472 180.595 58.0469 181.181 58.3525 181.766C58.4424 181.939 58.5322 182.112 58.6281 182.285C58.712 182.444 58.7959 182.604 58.8858 182.764C58.9457 182.87 59.0057 182.983 59.0656 183.09C59.1615 183.269 59.2573 183.442 59.3592 183.622C59.5809 184.014 59.8087 184.407 60.0304 184.799H60.0364C60.1382 184.979 60.2461 185.158 60.354 185.331V185.338C60.6716 185.87 61.0012 186.402 61.3308 186.928C61.3316 186.928 61.3323 186.928 61.3331 186.928C61.3338 186.929 61.3345 186.929 61.335 186.93C61.3356 186.93 61.336 186.931 61.3363 186.932C61.3366 186.933 61.3368 186.934 61.3368 186.935C61.6004 187.36 61.8761 187.773 62.1457 188.185V188.192C62.3255 188.451 62.4993 188.717 62.6791 188.977C62.8229 189.19 62.9727 189.409 63.1225 189.622C63.1525 189.669 63.1884 189.708 63.2184 189.755V189.762C63.2604 189.822 63.3023 189.875 63.3442 189.935C63.9795 190.839 64.6347 191.724 65.3098 192.589L65.4177 192.729C65.4536 192.775 65.4956 192.822 65.5315 192.875C65.5915 192.948 65.6454 193.021 65.7053 193.094C65.7592 193.168 65.8192 193.241 65.8791 193.314C69.3985 197.715 73.3892 201.622 77.7623 204.948C78.3435 205.394 78.9368 205.827 79.5301 206.246C79.6799 206.352 79.8297 206.458 79.9795 206.558C80.0214 206.592 80.0694 206.625 80.1113 206.658C80.1952 206.711 80.2731 206.765 80.357 206.824C80.4349 206.878 80.5128 206.931 80.5967 206.984C80.9143 207.204 81.2379 207.416 81.5615 207.629C81.6394 207.682 81.7233 207.736 81.8072 207.789C81.8851 207.835 81.969 207.889 82.0529 207.942C82.0529 207.949 82.0529 207.949 82.0589 207.949H82.0649V207.955H82.0709C82.4724 208.215 82.8799 208.467 83.2934 208.714C83.5151 208.847 83.7428 208.986 83.9705 209.113C84.4859 209.425 85.0072 209.725 85.5286 210.011C85.7143 210.111 85.9061 210.21 86.0919 210.317C86.2477 210.397 86.4035 210.483 86.5593 210.563C86.6072 210.589 86.6492 210.609 86.6911 210.636C86.823 210.703 86.9488 210.769 87.0806 210.836C87.2245 210.909 87.3683 210.982 87.5061 211.055C87.6679 211.135 87.8237 211.215 87.9855 211.288C88.5848 211.587 89.19 211.873 89.7952 212.146C91.9643 213.133 94.1809 213.986 96.435 214.7C96.5368 214.734 96.6447 214.767 96.7526 214.8C97.7174 215.1 98.6882 215.372 99.665 215.618C101.373 216.058 103.097 216.417 104.837 216.696H104.849C105.058 216.729 105.262 216.763 105.472 216.796C105.49 216.796 105.508 216.803 105.532 216.803C105.532 216.809 105.532 216.809 105.538 216.803C105.765 216.836 105.999 216.869 106.227 216.902C106.242 216.907 106.259 216.91 106.275 216.909C106.49 216.942 106.712 216.969 106.928 216.995C107.162 217.022 107.395 217.049 107.629 217.075C107.809 217.095 107.989 217.115 108.168 217.135C108.184 217.141 108.2 217.143 108.216 217.142C108.378 217.155 108.54 217.175 108.702 217.188H108.726C108.863 217.202 109.007 217.215 109.145 217.228C110.817 217.375 112.495 217.441 114.197 217.441C116.037 217.441 117.864 217.361 119.668 217.188H119.686C120.075 217.148 120.459 217.109 120.843 217.069C120.944 217.055 121.04 217.049 121.142 217.035C121.16 217.035 121.184 217.029 121.202 217.029C121.232 217.022 121.262 217.022 121.298 217.015C121.314 217.016 121.33 217.014 121.346 217.009C121.478 216.995 121.61 216.975 121.747 216.962L122.197 216.902C122.347 216.882 122.496 216.856 122.646 216.836C122.682 216.829 122.712 216.829 122.748 216.822C122.856 216.809 122.964 216.789 123.072 216.769C123.126 216.763 123.18 216.756 123.228 216.749C123.335 216.729 123.437 216.716 123.545 216.696H123.551C126.839 216.171 130.085 215.359 133.259 214.268C133.427 214.208 133.595 214.155 133.762 214.095C133.768 214.095 133.774 214.089 133.78 214.089C133.828 214.069 133.882 214.055 133.93 214.035C134.38 213.876 134.823 213.709 135.267 213.536C135.878 213.31 136.483 213.064 137.088 212.811C137.25 212.738 137.412 212.672 137.574 212.598C137.903 212.459 138.227 212.312 138.55 212.166C139.102 211.92 139.653 211.66 140.198 211.394C140.708 211.142 141.211 210.889 141.715 210.623C141.726 210.616 141.744 210.616 141.756 210.603C141.87 210.543 141.984 210.483 142.092 210.423H142.098C144.858 208.953 147.519 207.266 150.062 205.374C150.877 204.769 151.68 204.144 152.471 203.498C153.106 202.973 153.73 202.441 154.353 201.895C157.427 199.18 160.273 196.161 162.856 192.875V192.868C163.042 192.642 163.216 192.409 163.395 192.176C163.425 192.143 163.449 192.11 163.473 192.083C163.587 191.93 163.695 191.784 163.809 191.638V191.631C163.959 191.438 164.109 191.239 164.252 191.039C164.288 190.992 164.318 190.953 164.348 190.913V190.906C164.468 190.746 164.582 190.587 164.702 190.42C164.762 190.34 164.816 190.261 164.876 190.181V190.174C165.229 189.682 165.571 189.19 165.912 188.684C166.002 188.551 166.092 188.411 166.188 188.272C166.619 187.626 167.039 186.968 167.446 186.309V186.303C167.602 186.057 167.752 185.804 167.908 185.558C168.058 185.305 168.207 185.052 168.357 184.799C168.507 184.533 168.663 184.274 168.813 184.008L168.831 183.968C168.98 183.715 169.13 183.449 169.274 183.189C169.388 182.977 169.502 182.77 169.616 182.564C169.688 182.424 169.765 182.285 169.837 182.138C169.866 182.093 169.892 182.047 169.915 181.999C170.083 181.673 170.251 181.347 170.419 181.021C170.616 180.642 170.808 180.256 171 179.87C171.072 179.71 171.15 179.551 171.228 179.391C171.258 179.338 171.282 179.285 171.306 179.232C171.395 179.045 171.485 178.852 171.569 178.659C171.659 178.473 171.749 178.28 171.839 178.087C171.923 177.901 172.013 177.708 172.097 177.515C172.163 177.369 172.222 177.223 172.288 177.076C172.293 177.064 172.299 177.053 172.306 177.043C172.336 176.97 172.366 176.903 172.39 176.837C172.398 176.827 172.404 176.815 172.408 176.803C172.474 176.657 172.534 176.504 172.6 176.358C172.684 176.165 172.762 175.965 172.846 175.772C172.9 175.639 172.96 175.5 173.013 175.36C173.091 175.167 173.175 174.974 173.247 174.775C173.331 174.575 173.409 174.375 173.487 174.169C173.509 174.119 173.529 174.068 173.547 174.016C173.589 173.923 173.619 173.83 173.655 173.737C173.751 173.491 173.846 173.238 173.936 172.992C174.044 172.712 174.146 172.426 174.242 172.147C174.338 171.888 174.428 171.621 174.518 171.355L174.554 171.262C175.95 167.18 177.009 162.965 177.718 158.67V158.663C178.117 156.211 178.403 153.738 178.575 151.253C178.581 151.113 178.592 150.98 178.598 150.847C178.706 149.164 178.754 147.474 178.754 145.778C178.754 145.026 178.742 144.281 178.724 143.536C178.306 127.955 173.301 112.954 164.474 100.83C164.282 100.564 164.091 100.298 163.893 100.031C163.695 99.7654 163.491 99.506 163.294 99.2466C156.724 90.7067 148.439 83.9997 139.107 79.6664C129.774 75.333 119.655 73.4946 109.564 74.2992C99.4741 75.1037 89.6954 78.5289 81.0164 84.2985C72.3375 90.0681 65.0012 98.0207 59.599 107.515C59.3053 108.034 59.0117 108.56 58.73 109.085C58.4424 109.617 58.1667 110.149 57.8911 110.688C52.4622 121.4 49.6178 133.487 49.6334 145.778Z" fill="#F2F2F2"/>
<path d="M111.631 98.903C122.247 101.927 133.126 103.67 144.079 104.102C145.736 104.202 147.396 104.189 149.051 104.064C152.688 103.725 155.803 102.456 159.272 101.762C160.94 101.43 162.798 101.187 164.477 100.828C164.089 100.293 163.694 99.7656 163.292 99.2444C159.672 99.5839 155.995 100.696 152.33 101.212C146.101 102.091 139.122 101.11 134.4 98.6904C132.109 97.5162 130.355 96.0507 128.072 94.8712C127.761 94.6943 127.425 94.5799 127.078 94.5335C126.42 94.5115 125.77 94.6988 125.204 95.0732C121.374 97.2195 115.813 98.9638 110.652 98.0041C110.267 98.3383 110.998 98.7189 111.631 98.903Z" fill="white"/>
<path d="M88.7905 106.456C88.7434 106.447 88.6961 106.439 88.6489 106.43C88.8472 106.294 89.0339 106.138 89.2067 105.964L88.7905 106.456Z" fill="white"/>
<path d="M57.8923 110.691C60.048 110.882 62.215 111.025 64.3933 111.118C66.0496 111.217 67.7099 111.205 69.3648 111.081C73.0017 110.739 76.1169 109.472 79.5864 108.779C82.766 108.144 86.6299 107.839 88.6487 106.43C83.4309 105.428 78.0247 107.469 72.6443 108.228C68.2921 108.822 63.8803 108.581 59.6021 107.513C59.0064 108.554 58.4365 109.613 57.8923 110.691Z" fill="white"/>
<path d="M83.9705 209.113C84.4858 209.425 85.0072 209.725 85.5285 210.011C85.7143 210.111 85.906 210.21 86.0918 210.317C86.2476 210.397 86.4034 210.483 86.5592 210.563C86.6072 210.59 86.6491 210.609 86.6911 210.636C86.8229 210.703 86.9487 210.769 87.0806 210.836C87.2244 210.909 87.3682 210.982 87.5061 211.055C87.6679 211.135 87.8237 211.215 87.9855 211.288C88.5847 211.587 89.1899 211.873 89.7952 212.146C91.9642 213.133 94.1809 213.986 96.4349 214.701C96.5368 214.734 96.6447 214.767 96.7525 214.8C97.7174 215.1 98.6881 215.372 99.6649 215.619C101.373 216.058 103.097 216.417 104.836 216.696H104.848C105.058 216.729 105.262 216.763 105.472 216.796C105.49 216.796 105.508 216.803 105.532 216.803C105.532 216.809 105.532 216.809 105.538 216.803C105.765 216.836 105.999 216.869 106.227 216.902C106.242 216.907 106.258 216.91 106.275 216.909C106.49 216.942 106.712 216.969 106.928 216.996C107.162 217.022 107.395 217.049 107.629 217.075C107.809 217.095 107.989 217.115 108.168 217.135C108.184 217.141 108.2 217.143 108.216 217.142C108.378 217.155 108.54 217.175 108.702 217.188H108.726C108.863 217.202 109.007 217.215 109.145 217.228C110.817 217.375 112.495 217.441 114.197 217.441C116.036 217.441 117.864 217.361 119.668 217.188H119.686C120.075 217.149 120.459 217.109 120.842 217.069C120.944 217.055 121.04 217.049 121.142 217.035C121.16 217.035 121.184 217.029 121.202 217.029C121.232 217.022 121.262 217.022 121.298 217.015C121.314 217.016 121.33 217.014 121.346 217.009C121.478 216.995 121.61 216.976 121.747 216.962L122.197 216.902C122.347 216.882 122.496 216.856 122.646 216.836C122.682 216.829 122.712 216.829 122.748 216.823C122.856 216.809 122.964 216.789 123.072 216.769C123.126 216.763 123.18 216.756 123.228 216.749C123.335 216.729 123.437 216.716 123.545 216.696H123.551C126.839 216.171 130.085 215.359 133.259 214.268C133.427 214.208 133.595 214.155 133.762 214.095C132.989 210.09 131.396 206.335 129.107 203.122C126.818 199.908 123.894 197.322 120.561 195.562C121.385 194.691 121.955 193.565 122.197 192.329C122.352 191.533 122.365 190.711 122.233 189.91C122.101 189.108 121.828 188.344 121.43 187.66C120.652 186.334 119.432 185.406 118.038 185.079L109.157 183.017C107.727 182.707 106.246 183.037 105.034 183.934C103.822 184.83 102.978 186.222 102.685 187.806C102.595 188.292 102.554 188.787 102.565 189.283C94.0139 195.602 87.8596 202.155 83.9705 209.113Z" fill="#6C63FF"/>
<path d="M119.104 176.362C131.042 176.362 140.721 165.618 140.721 152.366C140.721 139.113 131.042 128.369 119.104 128.369C107.165 128.369 97.4868 139.113 97.4868 152.366C97.4868 165.618 107.165 176.362 119.104 176.362Z" fill="#9E616A"/>
<path d="M116.032 175.079C110.62 176.702 104.654 174.545 100.43 170.453C96.2071 166.361 93.5652 160.563 92.043 154.574C90.9281 150.188 90.3995 145.32 92.1588 141.202C93.9181 137.084 98.653 134.306 102.306 136.386C100.052 133.471 101.178 128.651 103.81 126.158C106.442 123.665 110.056 122.95 113.498 122.559C118.493 121.992 123.653 121.929 128.407 123.725C133.16 125.521 137.479 129.449 138.967 134.773C140.486 135.558 142.197 135.762 143.832 135.352C145.467 134.942 146.933 133.942 148.002 132.508C148.277 134.155 148.056 135.857 147.372 137.35C146.689 138.843 145.581 140.045 144.22 140.768L151.504 138.147C152.756 141.09 150.561 144.733 147.755 145.675C144.948 146.618 141.918 145.588 139.255 144.226C136.592 142.864 134.011 141.143 131.118 140.612C128.225 140.081 124.826 141.113 123.488 144.009C122.787 145.526 122.751 147.303 122.344 148.947C121.937 150.591 120.906 152.295 119.375 152.43C118.408 152.515 117.461 151.943 116.496 152.06C115.904 152.189 115.359 152.507 114.928 152.975C114.496 153.443 114.197 154.041 114.067 154.695C113.826 156.007 113.824 157.359 114.058 158.673L115.908 174.37L116.032 175.079Z" fill="#2F2E41"/>
<path d="M302.062 386.38C305.221 386.38 307.782 383.537 307.782 380.03C307.782 376.523 305.221 373.68 302.062 373.68C298.902 373.68 296.341 376.523 296.341 380.03C296.341 383.537 298.902 386.38 302.062 386.38Z" fill="#E6E6E6"/>
</g>
<defs>
<clipPath id="clip0_61_57">
<rect width="485" height="419" fill="white"/>
</clipPath>
</defs>
</svg>
